%TF.GenerationSoftware,KiCad,Pcbnew,9.0.2*%
%TF.CreationDate,2025-06-25T18:54:02-05:00*%
%TF.ProjectId,MechaSlate,4d656368-6153-46c6-9174-652e6b696361,rev?*%
%TF.SameCoordinates,Original*%
%TF.FileFunction,Soldermask,Top*%
%TF.FilePolarity,Negative*%
%FSLAX46Y46*%
G04 Gerber Fmt 4.6, Leading zero omitted, Abs format (unit mm)*
G04 Created by KiCad (PCBNEW 9.0.2) date 2025-06-25 18:54:02*
%MOMM*%
%LPD*%
G01*
G04 APERTURE LIST*
%ADD10C,1.700000*%
%ADD11C,4.000000*%
%ADD12C,2.200000*%
%ADD13C,1.752600*%
%ADD14R,1.600000X1.600000*%
%ADD15O,1.600000X1.600000*%
G04 APERTURE END LIST*
D10*
%TO.C,S5*%
X256615000Y-151500000D03*
D11*
X261695000Y-151500000D03*
D10*
X266775000Y-151500000D03*
D12*
X264235000Y-146420000D03*
X257885000Y-148960000D03*
%TD*%
D10*
%TO.C,S44*%
X213752500Y-208650000D03*
D11*
X218832500Y-208650000D03*
D10*
X223912500Y-208650000D03*
D12*
X221372500Y-203570000D03*
X215022500Y-206110000D03*
%TD*%
D10*
%TO.C,S61*%
X299477500Y-227700000D03*
D11*
X304557500Y-227700000D03*
D10*
X309637500Y-227700000D03*
D12*
X307097500Y-222620000D03*
X300747500Y-225160000D03*
%TD*%
D10*
%TO.C,S12*%
X389965000Y-151500000D03*
D11*
X395045000Y-151500000D03*
D10*
X400125000Y-151500000D03*
D12*
X397585000Y-146420000D03*
X391235000Y-148960000D03*
%TD*%
D10*
%TO.C,S3*%
X218515000Y-151500000D03*
D11*
X223595000Y-151500000D03*
D10*
X228675000Y-151500000D03*
D12*
X226135000Y-146420000D03*
X219785000Y-148960000D03*
%TD*%
D10*
%TO.C,S48*%
X289952500Y-208650000D03*
D11*
X295032500Y-208650000D03*
D10*
X300112500Y-208650000D03*
D12*
X297572500Y-203570000D03*
X291222500Y-206110000D03*
%TD*%
D10*
%TO.C,S10*%
X351865000Y-151500000D03*
D11*
X356945000Y-151500000D03*
D10*
X362025000Y-151500000D03*
D12*
X359485000Y-146420000D03*
X353135000Y-148960000D03*
%TD*%
D10*
%TO.C,S42*%
X442352500Y-189600000D03*
D11*
X447432500Y-189600000D03*
D10*
X452512500Y-189600000D03*
D12*
X449972500Y-184520000D03*
X443622500Y-187060000D03*
%TD*%
D10*
%TO.C,S78*%
X466165000Y-246750000D03*
D11*
X471245000Y-246750000D03*
D10*
X476325000Y-246750000D03*
D12*
X473785000Y-241670000D03*
X467435000Y-244210000D03*
%TD*%
D10*
%TO.C,S69*%
X182796250Y-246750000D03*
D11*
X187876250Y-246750000D03*
D10*
X192956250Y-246750000D03*
D12*
X190416250Y-241670000D03*
X184066250Y-244210000D03*
%TD*%
D10*
%TO.C,S15*%
X180415000Y-170550000D03*
D11*
X185495000Y-170550000D03*
D10*
X190575000Y-170550000D03*
D12*
X188035000Y-165470000D03*
X181685000Y-168010000D03*
%TD*%
D10*
%TO.C,S7*%
X294715000Y-151500000D03*
D11*
X299795000Y-151500000D03*
D10*
X304875000Y-151500000D03*
D12*
X302335000Y-146420000D03*
X295985000Y-148960000D03*
%TD*%
D10*
%TO.C,S27*%
X409015000Y-170550000D03*
D11*
X414095000Y-170550000D03*
D10*
X419175000Y-170550000D03*
D12*
X416635000Y-165470000D03*
X410285000Y-168010000D03*
%TD*%
D10*
%TO.C,S28*%
X437590000Y-170550000D03*
D11*
X442670000Y-170550000D03*
D10*
X447750000Y-170550000D03*
D12*
X445210000Y-165470000D03*
X438860000Y-168010000D03*
%TD*%
D10*
%TO.C,S20*%
X275665000Y-170550000D03*
D11*
X280745000Y-170550000D03*
D10*
X285825000Y-170550000D03*
D12*
X283285000Y-165470000D03*
X276935000Y-168010000D03*
%TD*%
D10*
%TO.C,S13*%
X409015000Y-151500000D03*
D11*
X414095000Y-151500000D03*
D10*
X419175000Y-151500000D03*
D12*
X416635000Y-146420000D03*
X410285000Y-148960000D03*
%TD*%
D10*
%TO.C,S34*%
X285190000Y-189600000D03*
D11*
X290270000Y-189600000D03*
D10*
X295350000Y-189600000D03*
D12*
X292810000Y-184520000D03*
X286460000Y-187060000D03*
%TD*%
D10*
%TO.C,S33*%
X266140000Y-189600000D03*
D11*
X271220000Y-189600000D03*
D10*
X276300000Y-189600000D03*
D12*
X273760000Y-184520000D03*
X267410000Y-187060000D03*
%TD*%
D10*
%TO.C,S70*%
X206608750Y-246750000D03*
D11*
X211688750Y-246750000D03*
D10*
X216768750Y-246750000D03*
D12*
X214228750Y-241670000D03*
X207878750Y-244210000D03*
%TD*%
D10*
%TO.C,S41*%
X418540000Y-189600000D03*
D11*
X423620000Y-189600000D03*
D10*
X428700000Y-189600000D03*
D12*
X426160000Y-184520000D03*
X419810000Y-187060000D03*
%TD*%
D10*
%TO.C,S66*%
X394727500Y-227700000D03*
D11*
X399807500Y-227700000D03*
D10*
X404887500Y-227700000D03*
D12*
X402347500Y-222620000D03*
X395997500Y-225160000D03*
%TD*%
D10*
%TO.C,S19*%
X256615000Y-170550000D03*
D11*
X261695000Y-170550000D03*
D10*
X266775000Y-170550000D03*
D12*
X264235000Y-165470000D03*
X257885000Y-168010000D03*
%TD*%
D10*
%TO.C,S17*%
X218515000Y-170550000D03*
D11*
X223595000Y-170550000D03*
D10*
X228675000Y-170550000D03*
D12*
X226135000Y-165470000D03*
X219785000Y-168010000D03*
%TD*%
D10*
%TO.C,S21*%
X294715000Y-170550000D03*
D11*
X299795000Y-170550000D03*
D10*
X304875000Y-170550000D03*
D12*
X302335000Y-165470000D03*
X295985000Y-168010000D03*
%TD*%
D10*
%TO.C,S30*%
X208990000Y-189600000D03*
D11*
X214070000Y-189600000D03*
D10*
X219150000Y-189600000D03*
D12*
X216610000Y-184520000D03*
X210260000Y-187060000D03*
%TD*%
D10*
%TO.C,S35*%
X304240000Y-189600000D03*
D11*
X309320000Y-189600000D03*
D10*
X314400000Y-189600000D03*
D12*
X311860000Y-184520000D03*
X305510000Y-187060000D03*
%TD*%
D10*
%TO.C,S67*%
X420921250Y-227700000D03*
D11*
X426001250Y-227700000D03*
D10*
X431081250Y-227700000D03*
D12*
X428541250Y-222620000D03*
X422191250Y-225160000D03*
%TD*%
D10*
%TO.C,S6*%
X275665000Y-151500000D03*
D11*
X280745000Y-151500000D03*
D10*
X285825000Y-151500000D03*
D12*
X283285000Y-146420000D03*
X276935000Y-148960000D03*
%TD*%
D10*
%TO.C,S23*%
X332815000Y-170550000D03*
D11*
X337895000Y-170550000D03*
D10*
X342975000Y-170550000D03*
D12*
X340435000Y-165470000D03*
X334085000Y-168010000D03*
%TD*%
D10*
%TO.C,S75*%
X409015000Y-246750000D03*
D11*
X414095000Y-246750000D03*
D10*
X419175000Y-246750000D03*
D12*
X416635000Y-241670000D03*
X410285000Y-244210000D03*
%TD*%
D10*
%TO.C,S52*%
X366152500Y-208650000D03*
D11*
X371232500Y-208650000D03*
D10*
X376312500Y-208650000D03*
D12*
X373772500Y-203570000D03*
X367422500Y-206110000D03*
%TD*%
D10*
%TO.C,S63*%
X337577500Y-227700000D03*
D11*
X342657500Y-227700000D03*
D10*
X347737500Y-227700000D03*
D12*
X345197500Y-222620000D03*
X338847500Y-225160000D03*
%TD*%
D10*
%TO.C,S60*%
X280427500Y-227700000D03*
D11*
X285507500Y-227700000D03*
D10*
X290587500Y-227700000D03*
D12*
X288047500Y-222620000D03*
X281697500Y-225160000D03*
%TD*%
D10*
%TO.C,S74*%
X389965000Y-246750000D03*
D11*
X395045000Y-246750000D03*
D10*
X400125000Y-246750000D03*
D12*
X397585000Y-241670000D03*
X391235000Y-244210000D03*
%TD*%
D10*
%TO.C,S47*%
X270902500Y-208650000D03*
D11*
X275982500Y-208650000D03*
D10*
X281062500Y-208650000D03*
D12*
X278522500Y-203570000D03*
X272172500Y-206110000D03*
%TD*%
D10*
%TO.C,S40*%
X399490000Y-189600000D03*
D11*
X404570000Y-189600000D03*
D10*
X409650000Y-189600000D03*
D12*
X407110000Y-184520000D03*
X400760000Y-187060000D03*
%TD*%
D10*
%TO.C,S62*%
X318527500Y-227700000D03*
D11*
X323607500Y-227700000D03*
D10*
X328687500Y-227700000D03*
D12*
X326147500Y-222620000D03*
X319797500Y-225160000D03*
%TD*%
D10*
%TO.C,S25*%
X370915000Y-170550000D03*
D11*
X375995000Y-170550000D03*
D10*
X381075000Y-170550000D03*
D12*
X378535000Y-165470000D03*
X372185000Y-168010000D03*
%TD*%
D10*
%TO.C,S58*%
X242327500Y-227700000D03*
D11*
X247407500Y-227700000D03*
D10*
X252487500Y-227700000D03*
D12*
X249947500Y-222620000D03*
X243597500Y-225160000D03*
%TD*%
D10*
%TO.C,S14*%
X466165000Y-151500000D03*
D11*
X471245000Y-151500000D03*
D10*
X476325000Y-151500000D03*
D12*
X473785000Y-146420000D03*
X467435000Y-148960000D03*
%TD*%
D10*
%TO.C,S68*%
X447115000Y-227700000D03*
D11*
X452195000Y-227700000D03*
D10*
X457275000Y-227700000D03*
D12*
X454735000Y-222620000D03*
X448385000Y-225160000D03*
%TD*%
D10*
%TO.C,S2*%
X199465000Y-151500000D03*
D11*
X204545000Y-151500000D03*
D10*
X209625000Y-151500000D03*
D12*
X207085000Y-146420000D03*
X200735000Y-148960000D03*
%TD*%
D10*
%TO.C,S1*%
X180415000Y-151500000D03*
D11*
X185495000Y-151500000D03*
D10*
X190575000Y-151500000D03*
D12*
X188035000Y-146420000D03*
X181685000Y-148960000D03*
%TD*%
D10*
%TO.C,S53*%
X385202500Y-208650000D03*
D11*
X390282500Y-208650000D03*
D10*
X395362500Y-208650000D03*
D12*
X392822500Y-203570000D03*
X386472500Y-206110000D03*
%TD*%
D10*
%TO.C,S64*%
X356627500Y-227700000D03*
D11*
X361707500Y-227700000D03*
D10*
X366787500Y-227700000D03*
D12*
X364247500Y-222620000D03*
X357897500Y-225160000D03*
%TD*%
D10*
%TO.C,S77*%
X447115000Y-246750000D03*
D11*
X452195000Y-246750000D03*
D10*
X457275000Y-246750000D03*
D12*
X454735000Y-241670000D03*
X448385000Y-244210000D03*
%TD*%
D10*
%TO.C,S31*%
X228040000Y-189600000D03*
D11*
X233120000Y-189600000D03*
D10*
X238200000Y-189600000D03*
D12*
X235660000Y-184520000D03*
X229310000Y-187060000D03*
%TD*%
D10*
%TO.C,S22*%
X313765000Y-170550000D03*
D11*
X318845000Y-170550000D03*
D10*
X323925000Y-170550000D03*
D12*
X321385000Y-165470000D03*
X315035000Y-168010000D03*
%TD*%
D10*
%TO.C,S18*%
X237565000Y-170550000D03*
D11*
X242645000Y-170550000D03*
D10*
X247725000Y-170550000D03*
D12*
X245185000Y-165470000D03*
X238835000Y-168010000D03*
%TD*%
D10*
%TO.C,S24*%
X351865000Y-170550000D03*
D11*
X356945000Y-170550000D03*
D10*
X362025000Y-170550000D03*
D12*
X359485000Y-165470000D03*
X353135000Y-168010000D03*
%TD*%
D10*
%TO.C,S71*%
X230421250Y-246750000D03*
D11*
X235501250Y-246750000D03*
D10*
X240581250Y-246750000D03*
D12*
X238041250Y-241670000D03*
X231691250Y-244210000D03*
%TD*%
D10*
%TO.C,S65*%
X375677500Y-227700000D03*
D11*
X380757500Y-227700000D03*
D10*
X385837500Y-227700000D03*
D12*
X383297500Y-222620000D03*
X376947500Y-225160000D03*
%TD*%
D10*
%TO.C,S32*%
X247090000Y-189600000D03*
D11*
X252170000Y-189600000D03*
D10*
X257250000Y-189600000D03*
D12*
X254710000Y-184520000D03*
X248360000Y-187060000D03*
%TD*%
D10*
%TO.C,S4*%
X237565000Y-151500000D03*
D11*
X242645000Y-151500000D03*
D10*
X247725000Y-151500000D03*
D12*
X245185000Y-146420000D03*
X238835000Y-148960000D03*
%TD*%
D10*
%TO.C,S56*%
X192321250Y-227700000D03*
D11*
X197401250Y-227700000D03*
D10*
X202481250Y-227700000D03*
D12*
X199941250Y-222620000D03*
X193591250Y-225160000D03*
%TD*%
D10*
%TO.C,S54*%
X404252500Y-208650000D03*
D11*
X409332500Y-208650000D03*
D10*
X414412500Y-208650000D03*
D12*
X411872500Y-203570000D03*
X405522500Y-206110000D03*
%TD*%
D10*
%TO.C,S72*%
X301858750Y-246750000D03*
D11*
X306938750Y-246750000D03*
D10*
X312018750Y-246750000D03*
D12*
X309478750Y-241670000D03*
X303128750Y-244210000D03*
%TD*%
D10*
%TO.C,S8*%
X313765000Y-151500000D03*
D11*
X318845000Y-151500000D03*
D10*
X323925000Y-151500000D03*
D12*
X321385000Y-146420000D03*
X315035000Y-148960000D03*
%TD*%
D10*
%TO.C,S11*%
X370915000Y-151500000D03*
D11*
X375995000Y-151500000D03*
D10*
X381075000Y-151500000D03*
D12*
X378535000Y-146420000D03*
X372185000Y-148960000D03*
%TD*%
D10*
%TO.C,S9*%
X332815000Y-151500000D03*
D11*
X337895000Y-151500000D03*
D10*
X342975000Y-151500000D03*
D12*
X340435000Y-146420000D03*
X334085000Y-148960000D03*
%TD*%
D10*
%TO.C,S73*%
X370915000Y-246750000D03*
D11*
X375995000Y-246750000D03*
D10*
X381075000Y-246750000D03*
D12*
X378535000Y-241670000D03*
X372185000Y-244210000D03*
%TD*%
D10*
%TO.C,S46*%
X251852500Y-208650000D03*
D11*
X256932500Y-208650000D03*
D10*
X262012500Y-208650000D03*
D12*
X259472500Y-203570000D03*
X253122500Y-206110000D03*
%TD*%
D10*
%TO.C,S51*%
X347102500Y-208650000D03*
D11*
X352182500Y-208650000D03*
D10*
X357262500Y-208650000D03*
D12*
X354722500Y-203570000D03*
X348372500Y-206110000D03*
%TD*%
D10*
%TO.C,S37*%
X342340000Y-189600000D03*
D11*
X347420000Y-189600000D03*
D10*
X352500000Y-189600000D03*
D12*
X349960000Y-184520000D03*
X343610000Y-187060000D03*
%TD*%
D10*
%TO.C,S76*%
X428065000Y-246750000D03*
D11*
X433145000Y-246750000D03*
D10*
X438225000Y-246750000D03*
D12*
X435685000Y-241670000D03*
X429335000Y-244210000D03*
%TD*%
D10*
%TO.C,S26*%
X389965000Y-170550000D03*
D11*
X395045000Y-170550000D03*
D10*
X400125000Y-170550000D03*
D12*
X397585000Y-165470000D03*
X391235000Y-168010000D03*
%TD*%
D10*
%TO.C,S49*%
X309002500Y-208650000D03*
D11*
X314082500Y-208650000D03*
D10*
X319162500Y-208650000D03*
D12*
X316622500Y-203570000D03*
X310272500Y-206110000D03*
%TD*%
D10*
%TO.C,S39*%
X380440000Y-189600000D03*
D11*
X385520000Y-189600000D03*
D10*
X390600000Y-189600000D03*
D12*
X388060000Y-184520000D03*
X381710000Y-187060000D03*
%TD*%
D10*
%TO.C,S38*%
X361390000Y-189600000D03*
D11*
X366470000Y-189600000D03*
D10*
X371550000Y-189600000D03*
D12*
X369010000Y-184520000D03*
X362660000Y-187060000D03*
%TD*%
D10*
%TO.C,S50*%
X328052500Y-208650000D03*
D11*
X333132500Y-208650000D03*
D10*
X338212500Y-208650000D03*
D12*
X335672500Y-203570000D03*
X329322500Y-206110000D03*
%TD*%
D10*
%TO.C,S55*%
X435208750Y-208650000D03*
D11*
X440288750Y-208650000D03*
D10*
X445368750Y-208650000D03*
D12*
X442828750Y-203570000D03*
X436478750Y-206110000D03*
%TD*%
D10*
%TO.C,S45*%
X232802500Y-208650000D03*
D11*
X237882500Y-208650000D03*
D10*
X242962500Y-208650000D03*
D12*
X240422500Y-203570000D03*
X234072500Y-206110000D03*
%TD*%
D10*
%TO.C,S59*%
X261377500Y-227700000D03*
D11*
X266457500Y-227700000D03*
D10*
X271537500Y-227700000D03*
D12*
X268997500Y-222620000D03*
X262647500Y-225160000D03*
%TD*%
D10*
%TO.C,S29*%
X185177500Y-189600000D03*
D11*
X190257500Y-189600000D03*
D10*
X195337500Y-189600000D03*
D12*
X192797500Y-184520000D03*
X186447500Y-187060000D03*
%TD*%
D10*
%TO.C,S16*%
X199465000Y-170550000D03*
D11*
X204545000Y-170550000D03*
D10*
X209625000Y-170550000D03*
D12*
X207085000Y-165470000D03*
X200735000Y-168010000D03*
%TD*%
D13*
%TO.C,U2*%
X180175000Y-139340000D03*
X182715000Y-139340000D03*
X185255000Y-139340000D03*
X187795000Y-139340000D03*
X190335000Y-139340000D03*
X192875000Y-139340000D03*
X195415000Y-139340000D03*
X197955000Y-139340000D03*
X200495000Y-139340000D03*
X203035000Y-139340000D03*
X205575000Y-139340000D03*
X208115000Y-139340000D03*
X208115000Y-124100000D03*
X205575000Y-124100000D03*
X203035000Y-124100000D03*
X200495000Y-124100000D03*
X197955000Y-124100000D03*
X195415000Y-124100000D03*
X192875000Y-124100000D03*
X190335000Y-124100000D03*
X187795000Y-124100000D03*
X185255000Y-124100000D03*
X182715000Y-124100000D03*
X180175000Y-124100000D03*
X203035000Y-136800000D03*
X203035000Y-134260000D03*
X203035000Y-131720000D03*
%TD*%
D10*
%TO.C,S57*%
X223277500Y-227700000D03*
D11*
X228357500Y-227700000D03*
D10*
X233437500Y-227700000D03*
D12*
X230897500Y-222620000D03*
X224547500Y-225160000D03*
%TD*%
D10*
%TO.C,S43*%
X187558750Y-208650000D03*
D11*
X192638750Y-208650000D03*
D10*
X197718750Y-208650000D03*
D12*
X195178750Y-203570000D03*
X188828750Y-206110000D03*
%TD*%
D10*
%TO.C,S36*%
X323290000Y-189600000D03*
D11*
X328370000Y-189600000D03*
D10*
X333450000Y-189600000D03*
D12*
X330910000Y-184520000D03*
X324560000Y-187060000D03*
%TD*%
D14*
%TO.C,D77*%
X442655000Y-249670000D03*
D15*
X442655000Y-242050000D03*
%TD*%
D14*
%TO.C,D15*%
X175955000Y-173470000D03*
D15*
X175955000Y-165850000D03*
%TD*%
D14*
%TO.C,D65*%
X371217500Y-230620000D03*
D15*
X371217500Y-223000000D03*
%TD*%
D14*
%TO.C,D78*%
X461705000Y-249670000D03*
D15*
X461705000Y-242050000D03*
%TD*%
D14*
%TO.C,D54*%
X399792500Y-211570000D03*
D15*
X399792500Y-203950000D03*
%TD*%
D14*
%TO.C,D67*%
X416461250Y-230620000D03*
D15*
X416461250Y-223000000D03*
%TD*%
D14*
%TO.C,D29*%
X180717500Y-192520000D03*
D15*
X180717500Y-184900000D03*
%TD*%
D14*
%TO.C,D64*%
X352167500Y-230620000D03*
D15*
X352167500Y-223000000D03*
%TD*%
D14*
%TO.C,D75*%
X404555000Y-249670000D03*
D15*
X404555000Y-242050000D03*
%TD*%
D14*
%TO.C,D1*%
X175955000Y-154420000D03*
D15*
X175955000Y-146800000D03*
%TD*%
D14*
%TO.C,D36*%
X318830000Y-192520000D03*
D15*
X318830000Y-184900000D03*
%TD*%
D14*
%TO.C,D27*%
X404555000Y-173470000D03*
D15*
X404555000Y-165850000D03*
%TD*%
D14*
%TO.C,D31*%
X223580000Y-192520000D03*
D15*
X223580000Y-184900000D03*
%TD*%
D14*
%TO.C,D49*%
X304542500Y-211570000D03*
D15*
X304542500Y-203950000D03*
%TD*%
D14*
%TO.C,D28*%
X433130000Y-173470000D03*
D15*
X433130000Y-165850000D03*
%TD*%
D14*
%TO.C,D48*%
X285492500Y-211570000D03*
D15*
X285492500Y-203950000D03*
%TD*%
D14*
%TO.C,D2*%
X195005000Y-154420000D03*
D15*
X195005000Y-146800000D03*
%TD*%
D14*
%TO.C,D6*%
X271205000Y-154420000D03*
D15*
X271205000Y-146800000D03*
%TD*%
D14*
%TO.C,D8*%
X309305000Y-154420000D03*
D15*
X309305000Y-146800000D03*
%TD*%
D14*
%TO.C,D53*%
X380742500Y-211570000D03*
D15*
X380742500Y-203950000D03*
%TD*%
D14*
%TO.C,D25*%
X366455000Y-173470000D03*
D15*
X366455000Y-165850000D03*
%TD*%
D14*
%TO.C,D40*%
X395030000Y-192520000D03*
D15*
X395030000Y-184900000D03*
%TD*%
D14*
%TO.C,D4*%
X233105000Y-154420000D03*
D15*
X233105000Y-146800000D03*
%TD*%
D14*
%TO.C,D70*%
X202148750Y-249670000D03*
D15*
X202148750Y-242050000D03*
%TD*%
D14*
%TO.C,D58*%
X237867500Y-230620000D03*
D15*
X237867500Y-223000000D03*
%TD*%
D14*
%TO.C,D32*%
X242630000Y-192520000D03*
D15*
X242630000Y-184900000D03*
%TD*%
D14*
%TO.C,D23*%
X328355000Y-173470000D03*
D15*
X328355000Y-165850000D03*
%TD*%
D14*
%TO.C,D55*%
X430748750Y-211570000D03*
D15*
X430748750Y-203950000D03*
%TD*%
D14*
%TO.C,D14*%
X461705000Y-154420000D03*
D15*
X461705000Y-146800000D03*
%TD*%
D14*
%TO.C,D74*%
X385505000Y-249670000D03*
D15*
X385505000Y-242050000D03*
%TD*%
D14*
%TO.C,D76*%
X423605000Y-249670000D03*
D15*
X423605000Y-242050000D03*
%TD*%
D14*
%TO.C,D7*%
X290255000Y-154420000D03*
D15*
X290255000Y-146800000D03*
%TD*%
D14*
%TO.C,D69*%
X178336250Y-249670000D03*
D15*
X178336250Y-242050000D03*
%TD*%
D14*
%TO.C,D52*%
X361692500Y-211570000D03*
D15*
X361692500Y-203950000D03*
%TD*%
D14*
%TO.C,D24*%
X347405000Y-173470000D03*
D15*
X347405000Y-165850000D03*
%TD*%
D14*
%TO.C,D5*%
X252155000Y-154420000D03*
D15*
X252155000Y-146800000D03*
%TD*%
D14*
%TO.C,D68*%
X442655000Y-230620000D03*
D15*
X442655000Y-223000000D03*
%TD*%
D14*
%TO.C,D42*%
X437892500Y-192520000D03*
D15*
X437892500Y-184900000D03*
%TD*%
D14*
%TO.C,D41*%
X414080000Y-192520000D03*
D15*
X414080000Y-184900000D03*
%TD*%
D14*
%TO.C,D71*%
X225961250Y-249670000D03*
D15*
X225961250Y-242050000D03*
%TD*%
D14*
%TO.C,D56*%
X187861250Y-230620000D03*
D15*
X187861250Y-223000000D03*
%TD*%
D14*
%TO.C,D26*%
X385505000Y-173470000D03*
D15*
X385505000Y-165850000D03*
%TD*%
D14*
%TO.C,D57*%
X218817500Y-230620000D03*
D15*
X218817500Y-223000000D03*
%TD*%
D14*
%TO.C,D33*%
X261680000Y-192520000D03*
D15*
X261680000Y-184900000D03*
%TD*%
D14*
%TO.C,D11*%
X366455000Y-154420000D03*
D15*
X366455000Y-146800000D03*
%TD*%
D14*
%TO.C,D12*%
X385505000Y-154420000D03*
D15*
X385505000Y-146800000D03*
%TD*%
D14*
%TO.C,D19*%
X252155000Y-173470000D03*
D15*
X252155000Y-165850000D03*
%TD*%
D14*
%TO.C,D50*%
X323592500Y-211570000D03*
D15*
X323592500Y-203950000D03*
%TD*%
D14*
%TO.C,D51*%
X342642500Y-211570000D03*
D15*
X342642500Y-203950000D03*
%TD*%
D14*
%TO.C,D37*%
X337880000Y-192520000D03*
D15*
X337880000Y-184900000D03*
%TD*%
D14*
%TO.C,D22*%
X309305000Y-173470000D03*
D15*
X309305000Y-165850000D03*
%TD*%
D14*
%TO.C,D18*%
X233105000Y-173470000D03*
D15*
X233105000Y-165850000D03*
%TD*%
D14*
%TO.C,D45*%
X228342500Y-211570000D03*
D15*
X228342500Y-203950000D03*
%TD*%
D14*
%TO.C,D30*%
X204530000Y-192520000D03*
D15*
X204530000Y-184900000D03*
%TD*%
D14*
%TO.C,D21*%
X290255000Y-173470000D03*
D15*
X290255000Y-165850000D03*
%TD*%
D14*
%TO.C,D39*%
X375980000Y-192520000D03*
D15*
X375980000Y-184900000D03*
%TD*%
D14*
%TO.C,D38*%
X356930000Y-192520000D03*
D15*
X356930000Y-184900000D03*
%TD*%
D14*
%TO.C,D72*%
X297398750Y-249670000D03*
D15*
X297398750Y-242050000D03*
%TD*%
D14*
%TO.C,D17*%
X214055000Y-173470000D03*
D15*
X214055000Y-165850000D03*
%TD*%
D14*
%TO.C,D43*%
X183098750Y-211570000D03*
D15*
X183098750Y-203950000D03*
%TD*%
D14*
%TO.C,D61*%
X295017500Y-230620000D03*
D15*
X295017500Y-223000000D03*
%TD*%
D14*
%TO.C,D60*%
X275967500Y-230620000D03*
D15*
X275967500Y-223000000D03*
%TD*%
D14*
%TO.C,D62*%
X314067500Y-230620000D03*
D15*
X314067500Y-223000000D03*
%TD*%
D14*
%TO.C,D34*%
X280730000Y-192520000D03*
D15*
X280730000Y-184900000D03*
%TD*%
D14*
%TO.C,D47*%
X266442500Y-211570000D03*
D15*
X266442500Y-203950000D03*
%TD*%
D14*
%TO.C,D3*%
X214055000Y-154420000D03*
D15*
X214055000Y-146800000D03*
%TD*%
D14*
%TO.C,D66*%
X390267500Y-230620000D03*
D15*
X390267500Y-223000000D03*
%TD*%
D14*
%TO.C,D63*%
X333117500Y-230620000D03*
D15*
X333117500Y-223000000D03*
%TD*%
D14*
%TO.C,D35*%
X299780000Y-192520000D03*
D15*
X299780000Y-184900000D03*
%TD*%
D14*
%TO.C,D20*%
X271205000Y-173470000D03*
D15*
X271205000Y-165850000D03*
%TD*%
D14*
%TO.C,D16*%
X195005000Y-173470000D03*
D15*
X195005000Y-165850000D03*
%TD*%
D14*
%TO.C,D44*%
X209292500Y-211570000D03*
D15*
X209292500Y-203950000D03*
%TD*%
D14*
%TO.C,D13*%
X404555000Y-154420000D03*
D15*
X404555000Y-146800000D03*
%TD*%
D14*
%TO.C,D10*%
X347405000Y-154420000D03*
D15*
X347405000Y-146800000D03*
%TD*%
D14*
%TO.C,D9*%
X328355000Y-154420000D03*
D15*
X328355000Y-146800000D03*
%TD*%
D14*
%TO.C,D59*%
X256917500Y-230620000D03*
D15*
X256917500Y-223000000D03*
%TD*%
D14*
%TO.C,D73*%
X366455000Y-249670000D03*
D15*
X366455000Y-242050000D03*
%TD*%
D14*
%TO.C,D46*%
X247392500Y-211570000D03*
D15*
X247392500Y-203950000D03*
%TD*%
M02*
