M48
; DRILL file {KiCad 9.0.2} date 2025-06-25T18:53:54-0500
; FORMAT={-:-/ absolute / metric / decimal}
; #@! TF.CreationDate,2025-06-25T18:53:54-05:00
; #@! TF.GenerationSoftware,Kicad,Pcbnew,9.0.2
; #@! TF.FileFunction,NonPlated,1,2,NPTH
FMAT,2
METRIC
; #@! TA.AperFunction,NonPlated,NPTH,ComponentDrill
T1C1.700
; #@! TA.AperFunction,NonPlated,NPTH,ComponentDrill
T2C4.000
%
G90
G05
T1
X180.415Y-151.5
X180.415Y-170.55
X182.796Y-246.75
X185.177Y-189.6
X187.559Y-208.65
X190.575Y-151.5
X190.575Y-170.55
X192.321Y-227.7
X192.956Y-246.75
X195.337Y-189.6
X197.719Y-208.65
X199.465Y-151.5
X199.465Y-170.55
X202.481Y-227.7
X206.609Y-246.75
X208.99Y-189.6
X209.625Y-151.5
X209.625Y-170.55
X213.752Y-208.65
X216.769Y-246.75
X218.515Y-151.5
X218.515Y-170.55
X219.15Y-189.6
X223.278Y-227.7
X223.912Y-208.65
X228.04Y-189.6
X228.675Y-151.5
X228.675Y-170.55
X230.421Y-246.75
X232.802Y-208.65
X233.438Y-227.7
X237.565Y-151.5
X237.565Y-170.55
X238.2Y-189.6
X240.581Y-246.75
X242.327Y-227.7
X242.962Y-208.65
X247.09Y-189.6
X247.725Y-151.5
X247.725Y-170.55
X251.852Y-208.65
X252.487Y-227.7
X256.615Y-151.5
X256.615Y-170.55
X257.25Y-189.6
X261.377Y-227.7
X262.012Y-208.65
X266.14Y-189.6
X266.775Y-151.5
X266.775Y-170.55
X270.902Y-208.65
X271.537Y-227.7
X275.665Y-151.5
X275.665Y-170.55
X276.3Y-189.6
X280.428Y-227.7
X281.062Y-208.65
X285.19Y-189.6
X285.825Y-151.5
X285.825Y-170.55
X289.952Y-208.65
X290.587Y-227.7
X294.715Y-151.5
X294.715Y-170.55
X295.35Y-189.6
X299.477Y-227.7
X300.113Y-208.65
X301.859Y-246.75
X304.24Y-189.6
X304.875Y-151.5
X304.875Y-170.55
X309.002Y-208.65
X309.637Y-227.7
X312.019Y-246.75
X313.765Y-151.5
X313.765Y-170.55
X314.4Y-189.6
X318.527Y-227.7
X319.162Y-208.65
X323.29Y-189.6
X323.925Y-151.5
X323.925Y-170.55
X328.053Y-208.65
X328.688Y-227.7
X332.815Y-151.5
X332.815Y-170.55
X333.45Y-189.6
X337.577Y-227.7
X338.212Y-208.65
X342.34Y-189.6
X342.975Y-151.5
X342.975Y-170.55
X347.102Y-208.65
X347.738Y-227.7
X351.865Y-151.5
X351.865Y-170.55
X352.5Y-189.6
X356.627Y-227.7
X357.262Y-208.65
X361.39Y-189.6
X362.025Y-151.5
X362.025Y-170.55
X366.152Y-208.65
X366.787Y-227.7
X370.915Y-151.5
X370.915Y-170.55
X370.915Y-246.75
X371.55Y-189.6
X375.678Y-227.7
X376.312Y-208.65
X380.44Y-189.6
X381.075Y-151.5
X381.075Y-170.55
X381.075Y-246.75
X385.202Y-208.65
X385.837Y-227.7
X389.965Y-151.5
X389.965Y-170.55
X389.965Y-246.75
X390.6Y-189.6
X394.727Y-227.7
X395.362Y-208.65
X399.49Y-189.6
X400.125Y-151.5
X400.125Y-170.55
X400.125Y-246.75
X404.252Y-208.65
X404.887Y-227.7
X409.015Y-151.5
X409.015Y-170.55
X409.015Y-246.75
X409.65Y-189.6
X414.412Y-208.65
X418.54Y-189.6
X419.175Y-151.5
X419.175Y-170.55
X419.175Y-246.75
X420.921Y-227.7
X428.065Y-246.75
X428.7Y-189.6
X431.081Y-227.7
X435.209Y-208.65
X437.59Y-170.55
X438.225Y-246.75
X442.352Y-189.6
X445.369Y-208.65
X447.115Y-227.7
X447.115Y-246.75
X447.75Y-170.55
X452.512Y-189.6
X457.275Y-227.7
X457.275Y-246.75
X466.165Y-151.5
X466.165Y-246.75
X476.325Y-151.5
X476.325Y-246.75
T2
X185.495Y-151.5
X185.495Y-170.55
X187.876Y-246.75
X190.257Y-189.6
X192.639Y-208.65
X197.401Y-227.7
X204.545Y-151.5
X204.545Y-170.55
X211.689Y-246.75
X214.07Y-189.6
X218.832Y-208.65
X223.595Y-151.5
X223.595Y-170.55
X228.357Y-227.7
X233.12Y-189.6
X235.501Y-246.75
X237.882Y-208.65
X242.645Y-151.5
X242.645Y-170.55
X247.407Y-227.7
X252.17Y-189.6
X256.933Y-208.65
X261.695Y-151.5
X261.695Y-170.55
X266.457Y-227.7
X271.22Y-189.6
X275.983Y-208.65
X280.745Y-151.5
X280.745Y-170.55
X285.507Y-227.7
X290.27Y-189.6
X295.032Y-208.65
X299.795Y-151.5
X299.795Y-170.55
X304.558Y-227.7
X306.939Y-246.75
X309.32Y-189.6
X314.082Y-208.65
X318.845Y-151.5
X318.845Y-170.55
X323.607Y-227.7
X328.37Y-189.6
X333.132Y-208.65
X337.895Y-151.5
X337.895Y-170.55
X342.657Y-227.7
X347.42Y-189.6
X352.183Y-208.65
X356.945Y-151.5
X356.945Y-170.55
X361.707Y-227.7
X366.47Y-189.6
X371.232Y-208.65
X375.995Y-151.5
X375.995Y-170.55
X375.995Y-246.75
X380.757Y-227.7
X385.52Y-189.6
X390.282Y-208.65
X395.045Y-151.5
X395.045Y-170.55
X395.045Y-246.75
X399.808Y-227.7
X404.57Y-189.6
X409.332Y-208.65
X414.095Y-151.5
X414.095Y-170.55
X414.095Y-246.75
X423.62Y-189.6
X426.001Y-227.7
X433.145Y-246.75
X440.289Y-208.65
X442.67Y-170.55
X447.433Y-189.6
X452.195Y-227.7
X452.195Y-246.75
X471.245Y-151.5
X471.245Y-246.75
M30
