%TF.GenerationSoftware,KiCad,Pcbnew,9.0.2*%
%TF.CreationDate,2025-06-25T18:54:02-05:00*%
%TF.ProjectId,MechaSlate,4d656368-6153-46c6-9174-652e6b696361,rev?*%
%TF.SameCoordinates,Original*%
%TF.FileFunction,Copper,L2,Bot*%
%TF.FilePolarity,Positive*%
%FSLAX46Y46*%
G04 Gerber Fmt 4.6, Leading zero omitted, Abs format (unit mm)*
G04 Created by KiCad (PCBNEW 9.0.2) date 2025-06-25 18:54:02*
%MOMM*%
%LPD*%
G01*
G04 APERTURE LIST*
%TA.AperFunction,ComponentPad*%
%ADD10C,2.200000*%
%TD*%
%TA.AperFunction,ComponentPad*%
%ADD11C,1.752600*%
%TD*%
%TA.AperFunction,ComponentPad*%
%ADD12R,1.600000X1.600000*%
%TD*%
%TA.AperFunction,ComponentPad*%
%ADD13O,1.600000X1.600000*%
%TD*%
%TA.AperFunction,ViaPad*%
%ADD14C,0.600000*%
%TD*%
%TA.AperFunction,Conductor*%
%ADD15C,0.200000*%
%TD*%
G04 APERTURE END LIST*
D10*
%TO.P,S5,1,1*%
%TO.N,col 4*%
X264235000Y-146420000D03*
%TO.P,S5,2,2*%
%TO.N,Net-(D5-A)*%
X257885000Y-148960000D03*
%TD*%
%TO.P,S44,1,1*%
%TO.N,col 1*%
X221372500Y-203570000D03*
%TO.P,S44,2,2*%
%TO.N,Net-(D44-A)*%
X215022500Y-206110000D03*
%TD*%
%TO.P,S61,1,1*%
%TO.N,col 5*%
X307097500Y-222620000D03*
%TO.P,S61,2,2*%
%TO.N,Net-(D61-A)*%
X300747500Y-225160000D03*
%TD*%
%TO.P,S12,1,1*%
%TO.N,col 11*%
X397585000Y-146420000D03*
%TO.P,S12,2,2*%
%TO.N,Net-(D12-A)*%
X391235000Y-148960000D03*
%TD*%
%TO.P,S3,1,1*%
%TO.N,col 2*%
X226135000Y-146420000D03*
%TO.P,S3,2,2*%
%TO.N,Net-(D3-A)*%
X219785000Y-148960000D03*
%TD*%
%TO.P,S48,1,1*%
%TO.N,col 5*%
X297572500Y-203570000D03*
%TO.P,S48,2,2*%
%TO.N,Net-(D48-A)*%
X291222500Y-206110000D03*
%TD*%
%TO.P,S10,1,1*%
%TO.N,col 9*%
X359485000Y-146420000D03*
%TO.P,S10,2,2*%
%TO.N,Net-(D10-A)*%
X353135000Y-148960000D03*
%TD*%
%TO.P,S42,1,1*%
%TO.N,col 13*%
X449972500Y-184520000D03*
%TO.P,S42,2,2*%
%TO.N,Net-(D42-A)*%
X443622500Y-187060000D03*
%TD*%
%TO.P,S78,1,1*%
%TO.N,col 9*%
X473785000Y-241670000D03*
%TO.P,S78,2,2*%
%TO.N,Net-(D78-A)*%
X467435000Y-244210000D03*
%TD*%
%TO.P,S69,1,1*%
%TO.N,col 0*%
X190416250Y-241670000D03*
%TO.P,S69,2,2*%
%TO.N,Net-(D69-A)*%
X184066250Y-244210000D03*
%TD*%
%TO.P,S15,1,1*%
%TO.N,col 0*%
X188035000Y-165470000D03*
%TO.P,S15,2,2*%
%TO.N,Net-(D15-A)*%
X181685000Y-168010000D03*
%TD*%
%TO.P,S7,1,1*%
%TO.N,col 6*%
X302335000Y-146420000D03*
%TO.P,S7,2,2*%
%TO.N,Net-(D7-A)*%
X295985000Y-148960000D03*
%TD*%
%TO.P,S27,1,1*%
%TO.N,col 12*%
X416635000Y-165470000D03*
%TO.P,S27,2,2*%
%TO.N,Net-(D27-A)*%
X410285000Y-168010000D03*
%TD*%
%TO.P,S28,1,1*%
%TO.N,col 13*%
X445210000Y-165470000D03*
%TO.P,S28,2,2*%
%TO.N,Net-(D28-A)*%
X438860000Y-168010000D03*
%TD*%
%TO.P,S20,1,1*%
%TO.N,col 5*%
X283285000Y-165470000D03*
%TO.P,S20,2,2*%
%TO.N,Net-(D20-A)*%
X276935000Y-168010000D03*
%TD*%
%TO.P,S13,1,1*%
%TO.N,col 12*%
X416635000Y-146420000D03*
%TO.P,S13,2,2*%
%TO.N,Net-(D13-A)*%
X410285000Y-148960000D03*
%TD*%
%TO.P,S34,1,1*%
%TO.N,col 5*%
X292810000Y-184520000D03*
%TO.P,S34,2,2*%
%TO.N,Net-(D34-A)*%
X286460000Y-187060000D03*
%TD*%
%TO.P,S33,1,1*%
%TO.N,col 4*%
X273760000Y-184520000D03*
%TO.P,S33,2,2*%
%TO.N,Net-(D33-A)*%
X267410000Y-187060000D03*
%TD*%
%TO.P,S70,1,1*%
%TO.N,col 1*%
X214228750Y-241670000D03*
%TO.P,S70,2,2*%
%TO.N,Net-(D70-A)*%
X207878750Y-244210000D03*
%TD*%
%TO.P,S41,1,1*%
%TO.N,col 12*%
X426160000Y-184520000D03*
%TO.P,S41,2,2*%
%TO.N,Net-(D41-A)*%
X419810000Y-187060000D03*
%TD*%
%TO.P,S66,1,1*%
%TO.N,col 10*%
X402347500Y-222620000D03*
%TO.P,S66,2,2*%
%TO.N,Net-(D66-A)*%
X395997500Y-225160000D03*
%TD*%
%TO.P,S19,1,1*%
%TO.N,col 4*%
X264235000Y-165470000D03*
%TO.P,S19,2,2*%
%TO.N,Net-(D19-A)*%
X257885000Y-168010000D03*
%TD*%
%TO.P,S17,1,1*%
%TO.N,col 2*%
X226135000Y-165470000D03*
%TO.P,S17,2,2*%
%TO.N,Net-(D17-A)*%
X219785000Y-168010000D03*
%TD*%
%TO.P,S21,1,1*%
%TO.N,col 6*%
X302335000Y-165470000D03*
%TO.P,S21,2,2*%
%TO.N,Net-(D21-A)*%
X295985000Y-168010000D03*
%TD*%
%TO.P,S30,1,1*%
%TO.N,col 1*%
X216610000Y-184520000D03*
%TO.P,S30,2,2*%
%TO.N,Net-(D30-A)*%
X210260000Y-187060000D03*
%TD*%
%TO.P,S35,1,1*%
%TO.N,col 6*%
X311860000Y-184520000D03*
%TO.P,S35,2,2*%
%TO.N,Net-(D35-A)*%
X305510000Y-187060000D03*
%TD*%
%TO.P,S67,1,1*%
%TO.N,col 11*%
X428541250Y-222620000D03*
%TO.P,S67,2,2*%
%TO.N,Net-(D67-A)*%
X422191250Y-225160000D03*
%TD*%
%TO.P,S6,1,1*%
%TO.N,col 5*%
X283285000Y-146420000D03*
%TO.P,S6,2,2*%
%TO.N,Net-(D6-A)*%
X276935000Y-148960000D03*
%TD*%
%TO.P,S23,1,1*%
%TO.N,col 8*%
X340435000Y-165470000D03*
%TO.P,S23,2,2*%
%TO.N,Net-(D23-A)*%
X334085000Y-168010000D03*
%TD*%
%TO.P,S75,1,1*%
%TO.N,col 6*%
X416635000Y-241670000D03*
%TO.P,S75,2,2*%
%TO.N,Net-(D75-A)*%
X410285000Y-244210000D03*
%TD*%
%TO.P,S52,1,1*%
%TO.N,col 9*%
X373772500Y-203570000D03*
%TO.P,S52,2,2*%
%TO.N,Net-(D52-A)*%
X367422500Y-206110000D03*
%TD*%
%TO.P,S63,1,1*%
%TO.N,col 7*%
X345197500Y-222620000D03*
%TO.P,S63,2,2*%
%TO.N,Net-(D63-A)*%
X338847500Y-225160000D03*
%TD*%
%TO.P,S60,1,1*%
%TO.N,col 4*%
X288047500Y-222620000D03*
%TO.P,S60,2,2*%
%TO.N,Net-(D60-A)*%
X281697500Y-225160000D03*
%TD*%
%TO.P,S74,1,1*%
%TO.N,col 5*%
X397585000Y-241670000D03*
%TO.P,S74,2,2*%
%TO.N,Net-(D74-A)*%
X391235000Y-244210000D03*
%TD*%
%TO.P,S47,1,1*%
%TO.N,col 4*%
X278522500Y-203570000D03*
%TO.P,S47,2,2*%
%TO.N,Net-(D47-A)*%
X272172500Y-206110000D03*
%TD*%
%TO.P,S40,1,1*%
%TO.N,col 11*%
X407110000Y-184520000D03*
%TO.P,S40,2,2*%
%TO.N,Net-(D40-A)*%
X400760000Y-187060000D03*
%TD*%
%TO.P,S62,1,1*%
%TO.N,col 6*%
X326147500Y-222620000D03*
%TO.P,S62,2,2*%
%TO.N,Net-(D62-A)*%
X319797500Y-225160000D03*
%TD*%
%TO.P,S25,1,1*%
%TO.N,col 10*%
X378535000Y-165470000D03*
%TO.P,S25,2,2*%
%TO.N,Net-(D25-A)*%
X372185000Y-168010000D03*
%TD*%
%TO.P,S58,1,1*%
%TO.N,col 2*%
X249947500Y-222620000D03*
%TO.P,S58,2,2*%
%TO.N,Net-(D58-A)*%
X243597500Y-225160000D03*
%TD*%
%TO.P,S14,1,1*%
%TO.N,col 13*%
X473785000Y-146420000D03*
%TO.P,S14,2,2*%
%TO.N,Net-(D14-A)*%
X467435000Y-148960000D03*
%TD*%
%TO.P,S68,1,1*%
%TO.N,col 12*%
X454735000Y-222620000D03*
%TO.P,S68,2,2*%
%TO.N,Net-(D68-A)*%
X448385000Y-225160000D03*
%TD*%
%TO.P,S2,1,1*%
%TO.N,col 1*%
X207085000Y-146420000D03*
%TO.P,S2,2,2*%
%TO.N,Net-(D2-A)*%
X200735000Y-148960000D03*
%TD*%
%TO.P,S1,1,1*%
%TO.N,col 0*%
X188035000Y-146420000D03*
%TO.P,S1,2,2*%
%TO.N,Net-(D1-A)*%
X181685000Y-148960000D03*
%TD*%
%TO.P,S53,1,1*%
%TO.N,col 10*%
X392822500Y-203570000D03*
%TO.P,S53,2,2*%
%TO.N,Net-(D53-A)*%
X386472500Y-206110000D03*
%TD*%
%TO.P,S64,1,1*%
%TO.N,col 8*%
X364247500Y-222620000D03*
%TO.P,S64,2,2*%
%TO.N,Net-(D64-A)*%
X357897500Y-225160000D03*
%TD*%
%TO.P,S77,1,1*%
%TO.N,col 8*%
X454735000Y-241670000D03*
%TO.P,S77,2,2*%
%TO.N,Net-(D77-A)*%
X448385000Y-244210000D03*
%TD*%
%TO.P,S31,1,1*%
%TO.N,col 2*%
X235660000Y-184520000D03*
%TO.P,S31,2,2*%
%TO.N,Net-(D31-A)*%
X229310000Y-187060000D03*
%TD*%
%TO.P,S22,1,1*%
%TO.N,col 7*%
X321385000Y-165470000D03*
%TO.P,S22,2,2*%
%TO.N,Net-(D22-A)*%
X315035000Y-168010000D03*
%TD*%
%TO.P,S18,1,1*%
%TO.N,col 3*%
X245185000Y-165470000D03*
%TO.P,S18,2,2*%
%TO.N,Net-(D18-A)*%
X238835000Y-168010000D03*
%TD*%
%TO.P,S24,1,1*%
%TO.N,col 9*%
X359485000Y-165470000D03*
%TO.P,S24,2,2*%
%TO.N,Net-(D24-A)*%
X353135000Y-168010000D03*
%TD*%
%TO.P,S71,1,1*%
%TO.N,col 2*%
X238041250Y-241670000D03*
%TO.P,S71,2,2*%
%TO.N,Net-(D71-A)*%
X231691250Y-244210000D03*
%TD*%
%TO.P,S65,1,1*%
%TO.N,col 9*%
X383297500Y-222620000D03*
%TO.P,S65,2,2*%
%TO.N,Net-(D65-A)*%
X376947500Y-225160000D03*
%TD*%
%TO.P,S32,1,1*%
%TO.N,col 3*%
X254710000Y-184520000D03*
%TO.P,S32,2,2*%
%TO.N,Net-(D32-A)*%
X248360000Y-187060000D03*
%TD*%
%TO.P,S4,1,1*%
%TO.N,col 3*%
X245185000Y-146420000D03*
%TO.P,S4,2,2*%
%TO.N,Net-(D4-A)*%
X238835000Y-148960000D03*
%TD*%
%TO.P,S56,1,1*%
%TO.N,col 0*%
X199941250Y-222620000D03*
%TO.P,S56,2,2*%
%TO.N,Net-(D56-A)*%
X193591250Y-225160000D03*
%TD*%
%TO.P,S54,1,1*%
%TO.N,col 11*%
X411872500Y-203570000D03*
%TO.P,S54,2,2*%
%TO.N,Net-(D54-A)*%
X405522500Y-206110000D03*
%TD*%
%TO.P,S72,1,1*%
%TO.N,col 3*%
X309478750Y-241670000D03*
%TO.P,S72,2,2*%
%TO.N,Net-(D72-A)*%
X303128750Y-244210000D03*
%TD*%
%TO.P,S8,1,1*%
%TO.N,col 7*%
X321385000Y-146420000D03*
%TO.P,S8,2,2*%
%TO.N,Net-(D8-A)*%
X315035000Y-148960000D03*
%TD*%
%TO.P,S11,1,1*%
%TO.N,col 10*%
X378535000Y-146420000D03*
%TO.P,S11,2,2*%
%TO.N,Net-(D11-A)*%
X372185000Y-148960000D03*
%TD*%
%TO.P,S9,1,1*%
%TO.N,col 8*%
X340435000Y-146420000D03*
%TO.P,S9,2,2*%
%TO.N,Net-(D9-A)*%
X334085000Y-148960000D03*
%TD*%
%TO.P,S73,1,1*%
%TO.N,col 4*%
X378535000Y-241670000D03*
%TO.P,S73,2,2*%
%TO.N,Net-(D73-A)*%
X372185000Y-244210000D03*
%TD*%
%TO.P,S46,1,1*%
%TO.N,col 3*%
X259472500Y-203570000D03*
%TO.P,S46,2,2*%
%TO.N,Net-(D46-A)*%
X253122500Y-206110000D03*
%TD*%
%TO.P,S51,1,1*%
%TO.N,col 8*%
X354722500Y-203570000D03*
%TO.P,S51,2,2*%
%TO.N,Net-(D51-A)*%
X348372500Y-206110000D03*
%TD*%
%TO.P,S37,1,1*%
%TO.N,col 8*%
X349960000Y-184520000D03*
%TO.P,S37,2,2*%
%TO.N,Net-(D37-A)*%
X343610000Y-187060000D03*
%TD*%
%TO.P,S76,1,1*%
%TO.N,col 7*%
X435685000Y-241670000D03*
%TO.P,S76,2,2*%
%TO.N,Net-(D76-A)*%
X429335000Y-244210000D03*
%TD*%
%TO.P,S26,1,1*%
%TO.N,col 11*%
X397585000Y-165470000D03*
%TO.P,S26,2,2*%
%TO.N,Net-(D26-A)*%
X391235000Y-168010000D03*
%TD*%
%TO.P,S49,1,1*%
%TO.N,col 6*%
X316622500Y-203570000D03*
%TO.P,S49,2,2*%
%TO.N,Net-(D49-A)*%
X310272500Y-206110000D03*
%TD*%
%TO.P,S39,1,1*%
%TO.N,col 10*%
X388060000Y-184520000D03*
%TO.P,S39,2,2*%
%TO.N,Net-(D39-A)*%
X381710000Y-187060000D03*
%TD*%
%TO.P,S38,1,1*%
%TO.N,col 9*%
X369010000Y-184520000D03*
%TO.P,S38,2,2*%
%TO.N,Net-(D38-A)*%
X362660000Y-187060000D03*
%TD*%
%TO.P,S50,1,1*%
%TO.N,col 7*%
X335672500Y-203570000D03*
%TO.P,S50,2,2*%
%TO.N,Net-(D50-A)*%
X329322500Y-206110000D03*
%TD*%
%TO.P,S55,1,1*%
%TO.N,col 12*%
X442828750Y-203570000D03*
%TO.P,S55,2,2*%
%TO.N,Net-(D55-A)*%
X436478750Y-206110000D03*
%TD*%
%TO.P,S45,1,1*%
%TO.N,col 2*%
X240422500Y-203570000D03*
%TO.P,S45,2,2*%
%TO.N,Net-(D45-A)*%
X234072500Y-206110000D03*
%TD*%
%TO.P,S59,1,1*%
%TO.N,col 3*%
X268997500Y-222620000D03*
%TO.P,S59,2,2*%
%TO.N,Net-(D59-A)*%
X262647500Y-225160000D03*
%TD*%
%TO.P,S29,1,1*%
%TO.N,col 0*%
X192797500Y-184520000D03*
%TO.P,S29,2,2*%
%TO.N,Net-(D29-A)*%
X186447500Y-187060000D03*
%TD*%
%TO.P,S16,1,1*%
%TO.N,col 1*%
X207085000Y-165470000D03*
%TO.P,S16,2,2*%
%TO.N,Net-(D16-A)*%
X200735000Y-168010000D03*
%TD*%
D11*
%TO.P,U2,1,1*%
%TO.N,col 0*%
X180175000Y-139340000D03*
%TO.P,U2,2,0*%
%TO.N,col 1*%
X182715000Y-139340000D03*
%TO.P,U2,3,GND*%
%TO.N,GND*%
X185255000Y-139340000D03*
%TO.P,U2,4,GND*%
%TO.N,unconnected-(U2-GND-Pad4)*%
X187795000Y-139340000D03*
%TO.P,U2,5,2*%
%TO.N,col 2*%
X190335000Y-139340000D03*
%TO.P,U2,6,3*%
%TO.N,col 3*%
X192875000Y-139340000D03*
%TO.P,U2,7,4*%
%TO.N,col 4*%
X195415000Y-139340000D03*
%TO.P,U2,8,5*%
%TO.N,col 5*%
X197955000Y-139340000D03*
%TO.P,U2,9,6*%
%TO.N,col 6*%
X200495000Y-139340000D03*
%TO.P,U2,10,7*%
%TO.N,col 7*%
X203035000Y-139340000D03*
%TO.P,U2,11,8*%
%TO.N,col 8*%
X205575000Y-139340000D03*
%TO.P,U2,12,9*%
%TO.N,col 9*%
X208115000Y-139340000D03*
%TO.P,U2,13,10*%
%TO.N,Row 3*%
X208115000Y-124100000D03*
%TO.P,U2,14,16*%
%TO.N,Row 2*%
X205575000Y-124100000D03*
%TO.P,U2,15,14*%
%TO.N,Row 1*%
X203035000Y-124100000D03*
%TO.P,U2,16,15*%
%TO.N,Row 0*%
X200495000Y-124100000D03*
%TO.P,U2,17,18*%
%TO.N,col 13*%
X197955000Y-124100000D03*
%TO.P,U2,18,19*%
%TO.N,col 12*%
X195415000Y-124100000D03*
%TO.P,U2,19,20*%
%TO.N,col 11*%
X192875000Y-124100000D03*
%TO.P,U2,20,21*%
%TO.N,col 10*%
X190335000Y-124100000D03*
%TO.P,U2,21,3.3v*%
%TO.N,unconnected-(U2-3.3v-Pad21)*%
X187795000Y-124100000D03*
%TO.P,U2,22,RST*%
%TO.N,unconnected-(U2-RST-Pad22)*%
X185255000Y-124100000D03*
%TO.P,U2,23,GND*%
%TO.N,unconnected-(U2-GND-Pad23)*%
X182715000Y-124100000D03*
%TO.P,U2,24,B+*%
%TO.N,unconnected-(U2-B+-Pad24)*%
X180175000Y-124100000D03*
%TO.P,U2,25,1*%
%TO.N,Row 4*%
X203035000Y-136800000D03*
%TO.P,U2,26,2*%
%TO.N,Row 5*%
X203035000Y-134260000D03*
%TO.P,U2,27,7*%
%TO.N,unconnected-(U2-7-Pad27)*%
X203035000Y-131720000D03*
%TD*%
D10*
%TO.P,S57,1,1*%
%TO.N,col 1*%
X230897500Y-222620000D03*
%TO.P,S57,2,2*%
%TO.N,Net-(D57-A)*%
X224547500Y-225160000D03*
%TD*%
%TO.P,S43,1,1*%
%TO.N,col 0*%
X195178750Y-203570000D03*
%TO.P,S43,2,2*%
%TO.N,Net-(D43-A)*%
X188828750Y-206110000D03*
%TD*%
%TO.P,S36,1,1*%
%TO.N,col 7*%
X330910000Y-184520000D03*
%TO.P,S36,2,2*%
%TO.N,Net-(D36-A)*%
X324560000Y-187060000D03*
%TD*%
D12*
%TO.P,D77,1,K*%
%TO.N,Row 5*%
X442655000Y-249670000D03*
D13*
%TO.P,D77,2,A*%
%TO.N,Net-(D77-A)*%
X442655000Y-242050000D03*
%TD*%
D12*
%TO.P,D15,1,K*%
%TO.N,Row 1*%
X175955000Y-173470000D03*
D13*
%TO.P,D15,2,A*%
%TO.N,Net-(D15-A)*%
X175955000Y-165850000D03*
%TD*%
D12*
%TO.P,D65,1,K*%
%TO.N,Row 4*%
X371217500Y-230620000D03*
D13*
%TO.P,D65,2,A*%
%TO.N,Net-(D65-A)*%
X371217500Y-223000000D03*
%TD*%
D12*
%TO.P,D78,1,K*%
%TO.N,Row 5*%
X461705000Y-249670000D03*
D13*
%TO.P,D78,2,A*%
%TO.N,Net-(D78-A)*%
X461705000Y-242050000D03*
%TD*%
D12*
%TO.P,D54,1,K*%
%TO.N,Row 3*%
X399792500Y-211570000D03*
D13*
%TO.P,D54,2,A*%
%TO.N,Net-(D54-A)*%
X399792500Y-203950000D03*
%TD*%
D12*
%TO.P,D67,1,K*%
%TO.N,Row 4*%
X416461250Y-230620000D03*
D13*
%TO.P,D67,2,A*%
%TO.N,Net-(D67-A)*%
X416461250Y-223000000D03*
%TD*%
D12*
%TO.P,D29,1,K*%
%TO.N,Row 2*%
X180717500Y-192520000D03*
D13*
%TO.P,D29,2,A*%
%TO.N,Net-(D29-A)*%
X180717500Y-184900000D03*
%TD*%
D12*
%TO.P,D64,1,K*%
%TO.N,Row 4*%
X352167500Y-230620000D03*
D13*
%TO.P,D64,2,A*%
%TO.N,Net-(D64-A)*%
X352167500Y-223000000D03*
%TD*%
D12*
%TO.P,D75,1,K*%
%TO.N,Row 5*%
X404555000Y-249670000D03*
D13*
%TO.P,D75,2,A*%
%TO.N,Net-(D75-A)*%
X404555000Y-242050000D03*
%TD*%
D12*
%TO.P,D1,1,K*%
%TO.N,Row 0*%
X175955000Y-154420000D03*
D13*
%TO.P,D1,2,A*%
%TO.N,Net-(D1-A)*%
X175955000Y-146800000D03*
%TD*%
D12*
%TO.P,D36,1,K*%
%TO.N,Row 2*%
X318830000Y-192520000D03*
D13*
%TO.P,D36,2,A*%
%TO.N,Net-(D36-A)*%
X318830000Y-184900000D03*
%TD*%
D12*
%TO.P,D27,1,K*%
%TO.N,Row 1*%
X404555000Y-173470000D03*
D13*
%TO.P,D27,2,A*%
%TO.N,Net-(D27-A)*%
X404555000Y-165850000D03*
%TD*%
D12*
%TO.P,D31,1,K*%
%TO.N,Row 2*%
X223580000Y-192520000D03*
D13*
%TO.P,D31,2,A*%
%TO.N,Net-(D31-A)*%
X223580000Y-184900000D03*
%TD*%
D12*
%TO.P,D49,1,K*%
%TO.N,Row 3*%
X304542500Y-211570000D03*
D13*
%TO.P,D49,2,A*%
%TO.N,Net-(D49-A)*%
X304542500Y-203950000D03*
%TD*%
D12*
%TO.P,D28,1,K*%
%TO.N,Row 1*%
X433130000Y-173470000D03*
D13*
%TO.P,D28,2,A*%
%TO.N,Net-(D28-A)*%
X433130000Y-165850000D03*
%TD*%
D12*
%TO.P,D48,1,K*%
%TO.N,Row 3*%
X285492500Y-211570000D03*
D13*
%TO.P,D48,2,A*%
%TO.N,Net-(D48-A)*%
X285492500Y-203950000D03*
%TD*%
D12*
%TO.P,D2,1,K*%
%TO.N,Row 0*%
X195005000Y-154420000D03*
D13*
%TO.P,D2,2,A*%
%TO.N,Net-(D2-A)*%
X195005000Y-146800000D03*
%TD*%
D12*
%TO.P,D6,1,K*%
%TO.N,Row 0*%
X271205000Y-154420000D03*
D13*
%TO.P,D6,2,A*%
%TO.N,Net-(D6-A)*%
X271205000Y-146800000D03*
%TD*%
D12*
%TO.P,D8,1,K*%
%TO.N,Row 0*%
X309305000Y-154420000D03*
D13*
%TO.P,D8,2,A*%
%TO.N,Net-(D8-A)*%
X309305000Y-146800000D03*
%TD*%
D12*
%TO.P,D53,1,K*%
%TO.N,Row 3*%
X380742500Y-211570000D03*
D13*
%TO.P,D53,2,A*%
%TO.N,Net-(D53-A)*%
X380742500Y-203950000D03*
%TD*%
D12*
%TO.P,D25,1,K*%
%TO.N,Row 1*%
X366455000Y-173470000D03*
D13*
%TO.P,D25,2,A*%
%TO.N,Net-(D25-A)*%
X366455000Y-165850000D03*
%TD*%
D12*
%TO.P,D40,1,K*%
%TO.N,Row 2*%
X395030000Y-192520000D03*
D13*
%TO.P,D40,2,A*%
%TO.N,Net-(D40-A)*%
X395030000Y-184900000D03*
%TD*%
D12*
%TO.P,D4,1,K*%
%TO.N,Row 0*%
X233105000Y-154420000D03*
D13*
%TO.P,D4,2,A*%
%TO.N,Net-(D4-A)*%
X233105000Y-146800000D03*
%TD*%
D12*
%TO.P,D70,1,K*%
%TO.N,Row 5*%
X202148750Y-249670000D03*
D13*
%TO.P,D70,2,A*%
%TO.N,Net-(D70-A)*%
X202148750Y-242050000D03*
%TD*%
D12*
%TO.P,D58,1,K*%
%TO.N,Row 4*%
X237867500Y-230620000D03*
D13*
%TO.P,D58,2,A*%
%TO.N,Net-(D58-A)*%
X237867500Y-223000000D03*
%TD*%
D12*
%TO.P,D32,1,K*%
%TO.N,Row 2*%
X242630000Y-192520000D03*
D13*
%TO.P,D32,2,A*%
%TO.N,Net-(D32-A)*%
X242630000Y-184900000D03*
%TD*%
D12*
%TO.P,D23,1,K*%
%TO.N,Row 1*%
X328355000Y-173470000D03*
D13*
%TO.P,D23,2,A*%
%TO.N,Net-(D23-A)*%
X328355000Y-165850000D03*
%TD*%
D12*
%TO.P,D55,1,K*%
%TO.N,Row 3*%
X430748750Y-211570000D03*
D13*
%TO.P,D55,2,A*%
%TO.N,Net-(D55-A)*%
X430748750Y-203950000D03*
%TD*%
D12*
%TO.P,D14,1,K*%
%TO.N,Row 0*%
X461705000Y-154420000D03*
D13*
%TO.P,D14,2,A*%
%TO.N,Net-(D14-A)*%
X461705000Y-146800000D03*
%TD*%
D12*
%TO.P,D74,1,K*%
%TO.N,Row 5*%
X385505000Y-249670000D03*
D13*
%TO.P,D74,2,A*%
%TO.N,Net-(D74-A)*%
X385505000Y-242050000D03*
%TD*%
D12*
%TO.P,D76,1,K*%
%TO.N,Row 5*%
X423605000Y-249670000D03*
D13*
%TO.P,D76,2,A*%
%TO.N,Net-(D76-A)*%
X423605000Y-242050000D03*
%TD*%
D12*
%TO.P,D7,1,K*%
%TO.N,Row 0*%
X290255000Y-154420000D03*
D13*
%TO.P,D7,2,A*%
%TO.N,Net-(D7-A)*%
X290255000Y-146800000D03*
%TD*%
D12*
%TO.P,D69,1,K*%
%TO.N,Row 5*%
X178336250Y-249670000D03*
D13*
%TO.P,D69,2,A*%
%TO.N,Net-(D69-A)*%
X178336250Y-242050000D03*
%TD*%
D12*
%TO.P,D52,1,K*%
%TO.N,Row 3*%
X361692500Y-211570000D03*
D13*
%TO.P,D52,2,A*%
%TO.N,Net-(D52-A)*%
X361692500Y-203950000D03*
%TD*%
D12*
%TO.P,D24,1,K*%
%TO.N,Row 1*%
X347405000Y-173470000D03*
D13*
%TO.P,D24,2,A*%
%TO.N,Net-(D24-A)*%
X347405000Y-165850000D03*
%TD*%
D12*
%TO.P,D5,1,K*%
%TO.N,Row 0*%
X252155000Y-154420000D03*
D13*
%TO.P,D5,2,A*%
%TO.N,Net-(D5-A)*%
X252155000Y-146800000D03*
%TD*%
D12*
%TO.P,D68,1,K*%
%TO.N,Row 4*%
X442655000Y-230620000D03*
D13*
%TO.P,D68,2,A*%
%TO.N,Net-(D68-A)*%
X442655000Y-223000000D03*
%TD*%
D12*
%TO.P,D42,1,K*%
%TO.N,Row 2*%
X437892500Y-192520000D03*
D13*
%TO.P,D42,2,A*%
%TO.N,Net-(D42-A)*%
X437892500Y-184900000D03*
%TD*%
D12*
%TO.P,D41,1,K*%
%TO.N,Row 2*%
X414080000Y-192520000D03*
D13*
%TO.P,D41,2,A*%
%TO.N,Net-(D41-A)*%
X414080000Y-184900000D03*
%TD*%
D12*
%TO.P,D71,1,K*%
%TO.N,Row 5*%
X225961250Y-249670000D03*
D13*
%TO.P,D71,2,A*%
%TO.N,Net-(D71-A)*%
X225961250Y-242050000D03*
%TD*%
D12*
%TO.P,D56,1,K*%
%TO.N,Row 4*%
X187861250Y-230620000D03*
D13*
%TO.P,D56,2,A*%
%TO.N,Net-(D56-A)*%
X187861250Y-223000000D03*
%TD*%
D12*
%TO.P,D26,1,K*%
%TO.N,Row 1*%
X385505000Y-173470000D03*
D13*
%TO.P,D26,2,A*%
%TO.N,Net-(D26-A)*%
X385505000Y-165850000D03*
%TD*%
D12*
%TO.P,D57,1,K*%
%TO.N,Row 4*%
X218817500Y-230620000D03*
D13*
%TO.P,D57,2,A*%
%TO.N,Net-(D57-A)*%
X218817500Y-223000000D03*
%TD*%
D12*
%TO.P,D33,1,K*%
%TO.N,Row 2*%
X261680000Y-192520000D03*
D13*
%TO.P,D33,2,A*%
%TO.N,Net-(D33-A)*%
X261680000Y-184900000D03*
%TD*%
D12*
%TO.P,D11,1,K*%
%TO.N,Row 0*%
X366455000Y-154420000D03*
D13*
%TO.P,D11,2,A*%
%TO.N,Net-(D11-A)*%
X366455000Y-146800000D03*
%TD*%
D12*
%TO.P,D12,1,K*%
%TO.N,Row 0*%
X385505000Y-154420000D03*
D13*
%TO.P,D12,2,A*%
%TO.N,Net-(D12-A)*%
X385505000Y-146800000D03*
%TD*%
D12*
%TO.P,D19,1,K*%
%TO.N,Row 1*%
X252155000Y-173470000D03*
D13*
%TO.P,D19,2,A*%
%TO.N,Net-(D19-A)*%
X252155000Y-165850000D03*
%TD*%
D12*
%TO.P,D50,1,K*%
%TO.N,Row 3*%
X323592500Y-211570000D03*
D13*
%TO.P,D50,2,A*%
%TO.N,Net-(D50-A)*%
X323592500Y-203950000D03*
%TD*%
D12*
%TO.P,D51,1,K*%
%TO.N,Row 3*%
X342642500Y-211570000D03*
D13*
%TO.P,D51,2,A*%
%TO.N,Net-(D51-A)*%
X342642500Y-203950000D03*
%TD*%
D12*
%TO.P,D37,1,K*%
%TO.N,Row 2*%
X337880000Y-192520000D03*
D13*
%TO.P,D37,2,A*%
%TO.N,Net-(D37-A)*%
X337880000Y-184900000D03*
%TD*%
D12*
%TO.P,D22,1,K*%
%TO.N,Row 1*%
X309305000Y-173470000D03*
D13*
%TO.P,D22,2,A*%
%TO.N,Net-(D22-A)*%
X309305000Y-165850000D03*
%TD*%
D12*
%TO.P,D18,1,K*%
%TO.N,Row 1*%
X233105000Y-173470000D03*
D13*
%TO.P,D18,2,A*%
%TO.N,Net-(D18-A)*%
X233105000Y-165850000D03*
%TD*%
D12*
%TO.P,D45,1,K*%
%TO.N,Row 3*%
X228342500Y-211570000D03*
D13*
%TO.P,D45,2,A*%
%TO.N,Net-(D45-A)*%
X228342500Y-203950000D03*
%TD*%
D12*
%TO.P,D30,1,K*%
%TO.N,Row 2*%
X204530000Y-192520000D03*
D13*
%TO.P,D30,2,A*%
%TO.N,Net-(D30-A)*%
X204530000Y-184900000D03*
%TD*%
D12*
%TO.P,D21,1,K*%
%TO.N,Row 1*%
X290255000Y-173470000D03*
D13*
%TO.P,D21,2,A*%
%TO.N,Net-(D21-A)*%
X290255000Y-165850000D03*
%TD*%
D12*
%TO.P,D39,1,K*%
%TO.N,Row 2*%
X375980000Y-192520000D03*
D13*
%TO.P,D39,2,A*%
%TO.N,Net-(D39-A)*%
X375980000Y-184900000D03*
%TD*%
D12*
%TO.P,D38,1,K*%
%TO.N,Row 2*%
X356930000Y-192520000D03*
D13*
%TO.P,D38,2,A*%
%TO.N,Net-(D38-A)*%
X356930000Y-184900000D03*
%TD*%
D12*
%TO.P,D72,1,K*%
%TO.N,Row 5*%
X297398750Y-249670000D03*
D13*
%TO.P,D72,2,A*%
%TO.N,Net-(D72-A)*%
X297398750Y-242050000D03*
%TD*%
D12*
%TO.P,D17,1,K*%
%TO.N,Row 1*%
X214055000Y-173470000D03*
D13*
%TO.P,D17,2,A*%
%TO.N,Net-(D17-A)*%
X214055000Y-165850000D03*
%TD*%
D12*
%TO.P,D43,1,K*%
%TO.N,Row 3*%
X183098750Y-211570000D03*
D13*
%TO.P,D43,2,A*%
%TO.N,Net-(D43-A)*%
X183098750Y-203950000D03*
%TD*%
D12*
%TO.P,D61,1,K*%
%TO.N,Row 4*%
X295017500Y-230620000D03*
D13*
%TO.P,D61,2,A*%
%TO.N,Net-(D61-A)*%
X295017500Y-223000000D03*
%TD*%
D12*
%TO.P,D60,1,K*%
%TO.N,Row 4*%
X275967500Y-230620000D03*
D13*
%TO.P,D60,2,A*%
%TO.N,Net-(D60-A)*%
X275967500Y-223000000D03*
%TD*%
D12*
%TO.P,D62,1,K*%
%TO.N,Row 4*%
X314067500Y-230620000D03*
D13*
%TO.P,D62,2,A*%
%TO.N,Net-(D62-A)*%
X314067500Y-223000000D03*
%TD*%
D12*
%TO.P,D34,1,K*%
%TO.N,Row 2*%
X280730000Y-192520000D03*
D13*
%TO.P,D34,2,A*%
%TO.N,Net-(D34-A)*%
X280730000Y-184900000D03*
%TD*%
D12*
%TO.P,D47,1,K*%
%TO.N,Row 3*%
X266442500Y-211570000D03*
D13*
%TO.P,D47,2,A*%
%TO.N,Net-(D47-A)*%
X266442500Y-203950000D03*
%TD*%
D12*
%TO.P,D3,1,K*%
%TO.N,Row 0*%
X214055000Y-154420000D03*
D13*
%TO.P,D3,2,A*%
%TO.N,Net-(D3-A)*%
X214055000Y-146800000D03*
%TD*%
D12*
%TO.P,D66,1,K*%
%TO.N,Row 4*%
X390267500Y-230620000D03*
D13*
%TO.P,D66,2,A*%
%TO.N,Net-(D66-A)*%
X390267500Y-223000000D03*
%TD*%
D12*
%TO.P,D63,1,K*%
%TO.N,Row 4*%
X333117500Y-230620000D03*
D13*
%TO.P,D63,2,A*%
%TO.N,Net-(D63-A)*%
X333117500Y-223000000D03*
%TD*%
D12*
%TO.P,D35,1,K*%
%TO.N,Row 2*%
X299780000Y-192520000D03*
D13*
%TO.P,D35,2,A*%
%TO.N,Net-(D35-A)*%
X299780000Y-184900000D03*
%TD*%
D12*
%TO.P,D20,1,K*%
%TO.N,Row 1*%
X271205000Y-173470000D03*
D13*
%TO.P,D20,2,A*%
%TO.N,Net-(D20-A)*%
X271205000Y-165850000D03*
%TD*%
D12*
%TO.P,D16,1,K*%
%TO.N,Row 1*%
X195005000Y-173470000D03*
D13*
%TO.P,D16,2,A*%
%TO.N,Net-(D16-A)*%
X195005000Y-165850000D03*
%TD*%
D12*
%TO.P,D44,1,K*%
%TO.N,Row 3*%
X209292500Y-211570000D03*
D13*
%TO.P,D44,2,A*%
%TO.N,Net-(D44-A)*%
X209292500Y-203950000D03*
%TD*%
D12*
%TO.P,D13,1,K*%
%TO.N,Row 0*%
X404555000Y-154420000D03*
D13*
%TO.P,D13,2,A*%
%TO.N,Net-(D13-A)*%
X404555000Y-146800000D03*
%TD*%
D12*
%TO.P,D10,1,K*%
%TO.N,Row 0*%
X347405000Y-154420000D03*
D13*
%TO.P,D10,2,A*%
%TO.N,Net-(D10-A)*%
X347405000Y-146800000D03*
%TD*%
D12*
%TO.P,D9,1,K*%
%TO.N,Row 0*%
X328355000Y-154420000D03*
D13*
%TO.P,D9,2,A*%
%TO.N,Net-(D9-A)*%
X328355000Y-146800000D03*
%TD*%
D12*
%TO.P,D59,1,K*%
%TO.N,Row 4*%
X256917500Y-230620000D03*
D13*
%TO.P,D59,2,A*%
%TO.N,Net-(D59-A)*%
X256917500Y-223000000D03*
%TD*%
D12*
%TO.P,D73,1,K*%
%TO.N,Row 5*%
X366455000Y-249670000D03*
D13*
%TO.P,D73,2,A*%
%TO.N,Net-(D73-A)*%
X366455000Y-242050000D03*
%TD*%
D12*
%TO.P,D46,1,K*%
%TO.N,Row 3*%
X247392500Y-211570000D03*
D13*
%TO.P,D46,2,A*%
%TO.N,Net-(D46-A)*%
X247392500Y-203950000D03*
%TD*%
D14*
%TO.N,col 4*%
X239235000Y-143620000D03*
%TO.N,col 9*%
X334535000Y-142620000D03*
%TO.N,col 11*%
X361035000Y-136120000D03*
%TO.N,col 13*%
X387835000Y-140120000D03*
%TD*%
D15*
%TO.N,Row 4*%
X178997700Y-138852346D02*
X178997700Y-221756450D01*
X203035000Y-136800000D02*
X181050046Y-136800000D01*
X181050046Y-136800000D02*
X178997700Y-138852346D01*
X178997700Y-221756450D02*
X187861250Y-230620000D01*
%TO.N,col 0*%
X188835000Y-184520000D02*
X192797500Y-184520000D01*
X192797500Y-201188750D02*
X195178750Y-203570000D01*
X199941250Y-222620000D02*
X199941250Y-234149816D01*
X188035000Y-146420000D02*
X188035000Y-165470000D01*
X188035000Y-146420000D02*
X180955000Y-139340000D01*
X192797500Y-184520000D02*
X192797500Y-201188750D01*
X180955000Y-139340000D02*
X180175000Y-139340000D01*
X188035000Y-165470000D02*
X188035000Y-183720000D01*
X195178750Y-217857500D02*
X199941250Y-222620000D01*
X199941250Y-234149816D02*
X192421066Y-241670000D01*
X188035000Y-183720000D02*
X188835000Y-184520000D01*
X195178750Y-203570000D02*
X195178750Y-217857500D01*
X192421066Y-241670000D02*
X190416250Y-241670000D01*
%TO.N,col 1*%
X182936314Y-139340000D02*
X189295314Y-145699000D01*
X216610000Y-184520000D02*
X216610000Y-198807500D01*
X224615500Y-222620000D02*
X214228750Y-233006750D01*
X230897500Y-211539366D02*
X230897500Y-222620000D01*
X207085000Y-165470000D02*
X208640634Y-165470000D01*
X189295314Y-145699000D02*
X206364000Y-145699000D01*
X216610000Y-173439366D02*
X216610000Y-184520000D01*
X230897500Y-222620000D02*
X224615500Y-222620000D01*
X216610000Y-198807500D02*
X221372500Y-203570000D01*
X207085000Y-146420000D02*
X207085000Y-165470000D01*
X221372500Y-203570000D02*
X222928134Y-203570000D01*
X208640634Y-165470000D02*
X216610000Y-173439366D01*
X214228750Y-233006750D02*
X214228750Y-241670000D01*
X182715000Y-139340000D02*
X182936314Y-139340000D01*
X206364000Y-145699000D02*
X207085000Y-146420000D01*
X222928134Y-203570000D02*
X230897500Y-211539366D01*
%TO.N,col 2*%
X235660000Y-198807500D02*
X240422500Y-203570000D01*
X249947500Y-222620000D02*
X249947500Y-229763750D01*
X196014000Y-145019000D02*
X224734000Y-145019000D01*
X226135000Y-146420000D02*
X226135000Y-165470000D01*
X235660000Y-184520000D02*
X235660000Y-198807500D01*
X226135000Y-165470000D02*
X226135000Y-174995000D01*
X240422500Y-203570000D02*
X240422500Y-213095000D01*
X226135000Y-174995000D02*
X235660000Y-184520000D01*
X190335000Y-139340000D02*
X196014000Y-145019000D01*
X249947500Y-229763750D02*
X238041250Y-241670000D01*
X240422500Y-213095000D02*
X249947500Y-222620000D01*
X224734000Y-145019000D02*
X226135000Y-146420000D01*
%TO.N,col 3*%
X308757750Y-240949000D02*
X309478750Y-241670000D01*
X245185000Y-146420000D02*
X245185000Y-165470000D01*
X245185000Y-165470000D02*
X245185000Y-174995000D01*
X295002000Y-240949000D02*
X308757750Y-240949000D01*
X254710000Y-201695000D02*
X256585000Y-203570000D01*
X259472500Y-203570000D02*
X259472500Y-213095000D01*
X282954000Y-228901000D02*
X295002000Y-240949000D01*
X194052300Y-140517300D02*
X239282300Y-140517300D01*
X245185000Y-174995000D02*
X254710000Y-184520000D01*
X275278500Y-228901000D02*
X282954000Y-228901000D01*
X192875000Y-139340000D02*
X194052300Y-140517300D01*
X259472500Y-213095000D02*
X268997500Y-222620000D01*
X268997500Y-222620000D02*
X275278500Y-228901000D01*
X239282300Y-140517300D02*
X245185000Y-146420000D01*
X256585000Y-203570000D02*
X259472500Y-203570000D01*
X254710000Y-184520000D02*
X254710000Y-201695000D01*
%TO.N,col 4*%
X265790634Y-165470000D02*
X273760000Y-173439366D01*
X192387346Y-138162700D02*
X191697700Y-138852346D01*
X372285000Y-241670000D02*
X378535000Y-241670000D01*
X288047500Y-211539366D02*
X288047500Y-222620000D01*
X370804000Y-243151000D02*
X372285000Y-241670000D01*
X273760000Y-184520000D02*
X273760000Y-198807500D01*
X194237700Y-138162700D02*
X192387346Y-138162700D01*
X264235000Y-165470000D02*
X265790634Y-165470000D01*
X288047500Y-231732500D02*
X295735000Y-239420000D01*
X195490046Y-143620000D02*
X239235000Y-143620000D01*
X195415000Y-139340000D02*
X194237700Y-138162700D01*
X320035000Y-239420000D02*
X323766000Y-243151000D01*
X273760000Y-198807500D02*
X278522500Y-203570000D01*
X264235000Y-146420000D02*
X264235000Y-165470000D01*
X191697700Y-138852346D02*
X191697700Y-139827654D01*
X295735000Y-239420000D02*
X320035000Y-239420000D01*
X273760000Y-173439366D02*
X273760000Y-184520000D01*
X278522500Y-203570000D02*
X280078134Y-203570000D01*
X288047500Y-222620000D02*
X288047500Y-231732500D01*
X191697700Y-139827654D02*
X195490046Y-143620000D01*
X280078134Y-203570000D02*
X288047500Y-211539366D01*
X323766000Y-243151000D02*
X370804000Y-243151000D01*
%TO.N,Row 5*%
X179437250Y-248569000D02*
X178336250Y-249670000D01*
X178596700Y-138686246D02*
X178596700Y-240721764D01*
X179437250Y-241562314D02*
X179437250Y-248569000D01*
X203035000Y-134260000D02*
X183022946Y-134260000D01*
X178596700Y-240721764D02*
X179437250Y-241562314D01*
X183022946Y-134260000D02*
X178596700Y-138686246D01*
%TO.N,col 5*%
X312835000Y-238520000D02*
X320935000Y-238520000D01*
X292810000Y-198807500D02*
X297572500Y-203570000D01*
X283285000Y-174995000D02*
X292810000Y-184520000D01*
X283285000Y-165470000D02*
X283285000Y-174995000D01*
X324735000Y-242320000D02*
X326786000Y-240269000D01*
X396184000Y-240269000D02*
X397585000Y-241670000D01*
X297572500Y-213095000D02*
X307097500Y-222620000D01*
X292810000Y-184520000D02*
X292810000Y-198807500D01*
X284384999Y-147519999D02*
X284384999Y-164370001D01*
X326786000Y-240269000D02*
X396184000Y-240269000D01*
X284384999Y-164370001D02*
X283285000Y-165470000D01*
X307097500Y-232782500D02*
X312835000Y-238520000D01*
X283285000Y-146420000D02*
X284384999Y-147519999D01*
X320935000Y-238520000D02*
X324735000Y-242320000D01*
X297572500Y-203570000D02*
X297572500Y-213095000D01*
X307097500Y-222620000D02*
X307097500Y-232782500D01*
%TO.N,col 6*%
X303890634Y-165470000D02*
X311860000Y-173439366D01*
X326147500Y-222620000D02*
X328347498Y-222620000D01*
X328347498Y-222620000D02*
X345595498Y-239868000D01*
X302335000Y-146420000D02*
X302335000Y-165470000D01*
X316622500Y-213095000D02*
X326147500Y-222620000D01*
X316622500Y-203570000D02*
X316622500Y-213095000D01*
X311860000Y-198807500D02*
X316622500Y-203570000D01*
X311860000Y-184520000D02*
X311860000Y-198807500D01*
X311860000Y-173439366D02*
X311860000Y-184520000D01*
X302335000Y-165470000D02*
X303890634Y-165470000D01*
X345595498Y-239868000D02*
X414833000Y-239868000D01*
X414833000Y-239868000D02*
X416635000Y-241670000D01*
%TO.N,col 7*%
X330910000Y-184520000D02*
X330910000Y-198807500D01*
X330910000Y-198807500D02*
X335672500Y-203570000D01*
X321385000Y-146420000D02*
X321385000Y-165470000D01*
X321385000Y-174995000D02*
X330910000Y-184520000D01*
X351935000Y-239020000D02*
X433035000Y-239020000D01*
X335672500Y-203570000D02*
X335672500Y-213095000D01*
X335672500Y-213095000D02*
X345197500Y-222620000D01*
X345197500Y-222620000D02*
X345197500Y-232282500D01*
X321385000Y-165470000D02*
X321385000Y-174995000D01*
X345197500Y-232282500D02*
X351935000Y-239020000D01*
X433035000Y-239020000D02*
X435685000Y-241670000D01*
%TO.N,col 8*%
X451684000Y-238619000D02*
X454735000Y-241670000D01*
X382446498Y-238619000D02*
X451684000Y-238619000D01*
X354722500Y-213095000D02*
X364247500Y-222620000D01*
X340435000Y-146420000D02*
X340435000Y-165470000D01*
X205575000Y-139340000D02*
X206752300Y-138162700D01*
X354722500Y-203570000D02*
X354722500Y-213095000D01*
X366447498Y-222620000D02*
X382446498Y-238619000D01*
X340435000Y-165470000D02*
X340435000Y-174995000D01*
X349960000Y-184520000D02*
X349960000Y-198807500D01*
X349960000Y-198807500D02*
X354722500Y-203570000D01*
X364247500Y-222620000D02*
X366447498Y-222620000D01*
X340435000Y-174995000D02*
X349960000Y-184520000D01*
X206752300Y-138162700D02*
X332177700Y-138162700D01*
X332177700Y-138162700D02*
X340435000Y-146420000D01*
%TO.N,col 9*%
X369010000Y-184520000D02*
X369010000Y-198807500D01*
X208115000Y-139340000D02*
X331255000Y-139340000D01*
X385335000Y-236920000D02*
X469035000Y-236920000D01*
X365635000Y-184520000D02*
X369010000Y-184520000D01*
X359485000Y-146420000D02*
X359485000Y-165470000D01*
X373772500Y-203570000D02*
X373772500Y-219557500D01*
X383297500Y-234882500D02*
X385335000Y-236920000D01*
X359485000Y-165470000D02*
X359485000Y-178370000D01*
X376835000Y-222620000D02*
X383297500Y-222620000D01*
X359485000Y-178370000D02*
X365635000Y-184520000D01*
X331255000Y-139340000D02*
X334535000Y-142620000D01*
X383297500Y-222620000D02*
X383297500Y-234882500D01*
X369010000Y-198807500D02*
X373772500Y-203570000D01*
X373772500Y-219557500D02*
X376835000Y-222620000D01*
X469035000Y-236920000D02*
X473785000Y-241670000D01*
%TO.N,col 10*%
X190335000Y-124100000D02*
X191512300Y-122922700D01*
X388060000Y-198807500D02*
X392822500Y-203570000D01*
X355037700Y-122922700D02*
X378535000Y-146420000D01*
X378535000Y-174995000D02*
X388060000Y-184520000D01*
X402347500Y-211539366D02*
X402347500Y-222620000D01*
X378535000Y-165470000D02*
X378535000Y-174995000D01*
X392822500Y-203570000D02*
X394378134Y-203570000D01*
X388060000Y-184520000D02*
X388060000Y-198807500D01*
X191512300Y-122922700D02*
X355037700Y-122922700D01*
X378535000Y-146420000D02*
X378535000Y-165470000D01*
X394378134Y-203570000D02*
X402347500Y-211539366D01*
%TO.N,col 11*%
X194052300Y-125277300D02*
X350192300Y-125277300D01*
X407110000Y-198807500D02*
X411872500Y-203570000D01*
X192875000Y-124100000D02*
X194052300Y-125277300D01*
X407110000Y-184520000D02*
X407110000Y-198807500D01*
X397585000Y-165470000D02*
X397585000Y-174995000D01*
X411872500Y-203570000D02*
X428541250Y-220238750D01*
X428541250Y-220238750D02*
X428541250Y-222620000D01*
X397585000Y-146420000D02*
X397585000Y-165470000D01*
X350192300Y-125277300D02*
X361035000Y-136120000D01*
X397585000Y-174995000D02*
X407110000Y-184520000D01*
%TO.N,col 12*%
X416635000Y-165470000D02*
X416635000Y-174995000D01*
X442828750Y-201188750D02*
X442828750Y-203570000D01*
X426160000Y-184520000D02*
X442828750Y-201188750D01*
X416635000Y-146420000D02*
X416635000Y-165470000D01*
X416635000Y-174995000D02*
X426160000Y-184520000D01*
%TO.N,col 13*%
X464260000Y-146420000D02*
X473785000Y-146420000D01*
X419860000Y-140120000D02*
X445210000Y-165470000D01*
X445210000Y-165470000D02*
X464260000Y-146420000D01*
X387835000Y-140120000D02*
X419860000Y-140120000D01*
%TD*%
M02*
