M48
; DRILL file {KiCad 9.0.2} date 2025-06-25T18:53:54-0500
; FORMAT={-:-/ absolute / metric / decimal}
; #@! TF.CreationDate,2025-06-25T18:53:54-05:00
; #@! TF.GenerationSoftware,Kicad,Pcbnew,9.0.2
; #@! TF.FileFunction,Plated,1,2,PTH
FMAT,2
METRIC
; #@! TA.AperFunction,Plated,PTH,ViaDrill
T1C0.300
; #@! TA.AperFunction,Plated,PTH,ComponentDrill
T2C0.800
; #@! TA.AperFunction,Plated,PTH,ComponentDrill
T3C1.092
; #@! TA.AperFunction,Plated,PTH,ComponentDrill
T4C1.500
%
G90
G05
T1
X239.235Y-143.62
X334.535Y-142.62
X361.035Y-136.12
X387.835Y-140.12
T2
X175.955Y-146.8
X175.955Y-154.42
X175.955Y-165.85
X175.955Y-173.47
X178.336Y-242.05
X178.336Y-249.67
X180.718Y-184.9
X180.718Y-192.52
X183.099Y-203.95
X183.099Y-211.57
X187.861Y-223.0
X187.861Y-230.62
X195.005Y-146.8
X195.005Y-154.42
X195.005Y-165.85
X195.005Y-173.47
X202.149Y-242.05
X202.149Y-249.67
X204.53Y-184.9
X204.53Y-192.52
X209.292Y-203.95
X209.292Y-211.57
X214.055Y-146.8
X214.055Y-154.42
X214.055Y-165.85
X214.055Y-173.47
X218.817Y-223.0
X218.817Y-230.62
X223.58Y-184.9
X223.58Y-192.52
X225.961Y-242.05
X225.961Y-249.67
X228.343Y-203.95
X228.343Y-211.57
X233.105Y-146.8
X233.105Y-154.42
X233.105Y-165.85
X233.105Y-173.47
X237.867Y-223.0
X237.867Y-230.62
X242.63Y-184.9
X242.63Y-192.52
X247.392Y-203.95
X247.392Y-211.57
X252.155Y-146.8
X252.155Y-154.42
X252.155Y-165.85
X252.155Y-173.47
X256.917Y-223.0
X256.917Y-230.62
X261.68Y-184.9
X261.68Y-192.52
X266.442Y-203.95
X266.442Y-211.57
X271.205Y-146.8
X271.205Y-154.42
X271.205Y-165.85
X271.205Y-173.47
X275.967Y-223.0
X275.967Y-230.62
X280.73Y-184.9
X280.73Y-192.52
X285.493Y-203.95
X285.493Y-211.57
X290.255Y-146.8
X290.255Y-154.42
X290.255Y-165.85
X290.255Y-173.47
X295.017Y-223.0
X295.017Y-230.62
X297.399Y-242.05
X297.399Y-249.67
X299.78Y-184.9
X299.78Y-192.52
X304.542Y-203.95
X304.542Y-211.57
X309.305Y-146.8
X309.305Y-154.42
X309.305Y-165.85
X309.305Y-173.47
X314.067Y-223.0
X314.067Y-230.62
X318.83Y-184.9
X318.83Y-192.52
X323.592Y-203.95
X323.592Y-211.57
X328.355Y-146.8
X328.355Y-154.42
X328.355Y-165.85
X328.355Y-173.47
X333.118Y-223.0
X333.118Y-230.62
X337.88Y-184.9
X337.88Y-192.52
X342.642Y-203.95
X342.642Y-211.57
X347.405Y-146.8
X347.405Y-154.42
X347.405Y-165.85
X347.405Y-173.47
X352.167Y-223.0
X352.167Y-230.62
X356.93Y-184.9
X356.93Y-192.52
X361.692Y-203.95
X361.692Y-211.57
X366.455Y-146.8
X366.455Y-154.42
X366.455Y-165.85
X366.455Y-173.47
X366.455Y-242.05
X366.455Y-249.67
X371.217Y-223.0
X371.217Y-230.62
X375.98Y-184.9
X375.98Y-192.52
X380.743Y-203.95
X380.743Y-211.57
X385.505Y-146.8
X385.505Y-154.42
X385.505Y-165.85
X385.505Y-173.47
X385.505Y-242.05
X385.505Y-249.67
X390.267Y-223.0
X390.267Y-230.62
X395.03Y-184.9
X395.03Y-192.52
X399.792Y-203.95
X399.792Y-211.57
X404.555Y-146.8
X404.555Y-154.42
X404.555Y-165.85
X404.555Y-173.47
X404.555Y-242.05
X404.555Y-249.67
X414.08Y-184.9
X414.08Y-192.52
X416.461Y-223.0
X416.461Y-230.62
X423.605Y-242.05
X423.605Y-249.67
X430.749Y-203.95
X430.749Y-211.57
X433.13Y-165.85
X433.13Y-173.47
X437.892Y-184.9
X437.892Y-192.52
X442.655Y-223.0
X442.655Y-230.62
X442.655Y-242.05
X442.655Y-249.67
X461.705Y-146.8
X461.705Y-154.42
X461.705Y-242.05
X461.705Y-249.67
T3
X180.175Y-124.1
X180.175Y-139.34
X182.715Y-124.1
X182.715Y-139.34
X185.255Y-124.1
X185.255Y-139.34
X187.795Y-124.1
X187.795Y-139.34
X190.335Y-124.1
X190.335Y-139.34
X192.875Y-124.1
X192.875Y-139.34
X195.415Y-124.1
X195.415Y-139.34
X197.955Y-124.1
X197.955Y-139.34
X200.495Y-124.1
X200.495Y-139.34
X203.035Y-124.1
X203.035Y-131.72
X203.035Y-134.26
X203.035Y-136.8
X203.035Y-139.34
X205.575Y-124.1
X205.575Y-139.34
X208.115Y-124.1
X208.115Y-139.34
T4
X181.685Y-148.96
X181.685Y-168.01
X184.066Y-244.21
X186.447Y-187.06
X188.035Y-146.42
X188.035Y-165.47
X188.829Y-206.11
X190.416Y-241.67
X192.797Y-184.52
X193.591Y-225.16
X195.179Y-203.57
X199.941Y-222.62
X200.735Y-148.96
X200.735Y-168.01
X207.085Y-146.42
X207.085Y-165.47
X207.879Y-244.21
X210.26Y-187.06
X214.229Y-241.67
X215.022Y-206.11
X216.61Y-184.52
X219.785Y-148.96
X219.785Y-168.01
X221.373Y-203.57
X224.547Y-225.16
X226.135Y-146.42
X226.135Y-165.47
X229.31Y-187.06
X230.897Y-222.62
X231.691Y-244.21
X234.072Y-206.11
X235.66Y-184.52
X238.041Y-241.67
X238.835Y-148.96
X238.835Y-168.01
X240.422Y-203.57
X243.597Y-225.16
X245.185Y-146.42
X245.185Y-165.47
X248.36Y-187.06
X249.947Y-222.62
X253.123Y-206.11
X254.71Y-184.52
X257.885Y-148.96
X257.885Y-168.01
X259.472Y-203.57
X262.647Y-225.16
X264.235Y-146.42
X264.235Y-165.47
X267.41Y-187.06
X268.998Y-222.62
X272.173Y-206.11
X273.76Y-184.52
X276.935Y-148.96
X276.935Y-168.01
X278.522Y-203.57
X281.697Y-225.16
X283.285Y-146.42
X283.285Y-165.47
X286.46Y-187.06
X288.048Y-222.62
X291.222Y-206.11
X292.81Y-184.52
X295.985Y-148.96
X295.985Y-168.01
X297.572Y-203.57
X300.748Y-225.16
X302.335Y-146.42
X302.335Y-165.47
X303.129Y-244.21
X305.51Y-187.06
X307.097Y-222.62
X309.479Y-241.67
X310.272Y-206.11
X311.86Y-184.52
X315.035Y-148.96
X315.035Y-168.01
X316.623Y-203.57
X319.798Y-225.16
X321.385Y-146.42
X321.385Y-165.47
X324.56Y-187.06
X326.147Y-222.62
X329.322Y-206.11
X330.91Y-184.52
X334.085Y-148.96
X334.085Y-168.01
X335.672Y-203.57
X338.847Y-225.16
X340.435Y-146.42
X340.435Y-165.47
X343.61Y-187.06
X345.197Y-222.62
X348.373Y-206.11
X349.96Y-184.52
X353.135Y-148.96
X353.135Y-168.01
X354.722Y-203.57
X357.897Y-225.16
X359.485Y-146.42
X359.485Y-165.47
X362.66Y-187.06
X364.248Y-222.62
X367.422Y-206.11
X369.01Y-184.52
X372.185Y-148.96
X372.185Y-168.01
X372.185Y-244.21
X373.772Y-203.57
X376.947Y-225.16
X378.535Y-146.42
X378.535Y-165.47
X378.535Y-241.67
X381.71Y-187.06
X383.297Y-222.62
X386.472Y-206.11
X388.06Y-184.52
X391.235Y-148.96
X391.235Y-168.01
X391.235Y-244.21
X392.822Y-203.57
X395.998Y-225.16
X397.585Y-146.42
X397.585Y-165.47
X397.585Y-241.67
X400.76Y-187.06
X402.347Y-222.62
X405.522Y-206.11
X407.11Y-184.52
X410.285Y-148.96
X410.285Y-168.01
X410.285Y-244.21
X411.873Y-203.57
X416.635Y-146.42
X416.635Y-165.47
X416.635Y-241.67
X419.81Y-187.06
X422.191Y-225.16
X426.16Y-184.52
X428.541Y-222.62
X429.335Y-244.21
X435.685Y-241.67
X436.479Y-206.11
X438.86Y-168.01
X442.829Y-203.57
X443.623Y-187.06
X445.21Y-165.47
X448.385Y-225.16
X448.385Y-244.21
X449.972Y-184.52
X454.735Y-222.62
X454.735Y-241.67
X467.435Y-148.96
X467.435Y-244.21
X473.785Y-146.42
X473.785Y-241.67
M30
