%TF.GenerationSoftware,KiCad,Pcbnew,9.0.2*%
%TF.CreationDate,2025-06-25T18:54:02-05:00*%
%TF.ProjectId,MechaSlate,4d656368-6153-46c6-9174-652e6b696361,rev?*%
%TF.SameCoordinates,Original*%
%TF.FileFunction,Legend,Bot*%
%TF.FilePolarity,Positive*%
%FSLAX46Y46*%
G04 Gerber Fmt 4.6, Leading zero omitted, Abs format (unit mm)*
G04 Created by KiCad (PCBNEW 9.0.2) date 2025-06-25 18:54:02*
%MOMM*%
%LPD*%
G01*
G04 APERTURE LIST*
%ADD10C,0.200000*%
%ADD11C,0.100000*%
G04 APERTURE END LIST*
D10*
X205027217Y-131386667D02*
X205027217Y-132053333D01*
X205027217Y-132053333D02*
X206027217Y-131624762D01*
X205122457Y-133974286D02*
X205074838Y-134021905D01*
X205074838Y-134021905D02*
X205027219Y-134117143D01*
X205027219Y-134117143D02*
X205027219Y-134355238D01*
X205027219Y-134355238D02*
X205074838Y-134450476D01*
X205074838Y-134450476D02*
X205122457Y-134498095D01*
X205122457Y-134498095D02*
X205217695Y-134545714D01*
X205217695Y-134545714D02*
X205312933Y-134545714D01*
X205312933Y-134545714D02*
X205455790Y-134498095D01*
X205455790Y-134498095D02*
X206027219Y-133926667D01*
X206027219Y-133926667D02*
X206027219Y-134545714D01*
X199947219Y-142678244D02*
X199947219Y-142487768D01*
X199947219Y-142487768D02*
X199994838Y-142392530D01*
X199994838Y-142392530D02*
X200042457Y-142344911D01*
X200042457Y-142344911D02*
X200185314Y-142249673D01*
X200185314Y-142249673D02*
X200375790Y-142202054D01*
X200375790Y-142202054D02*
X200756742Y-142202054D01*
X200756742Y-142202054D02*
X200851980Y-142249673D01*
X200851980Y-142249673D02*
X200899600Y-142297292D01*
X200899600Y-142297292D02*
X200947219Y-142392530D01*
X200947219Y-142392530D02*
X200947219Y-142583006D01*
X200947219Y-142583006D02*
X200899600Y-142678244D01*
X200899600Y-142678244D02*
X200851980Y-142725863D01*
X200851980Y-142725863D02*
X200756742Y-142773482D01*
X200756742Y-142773482D02*
X200518647Y-142773482D01*
X200518647Y-142773482D02*
X200423409Y-142725863D01*
X200423409Y-142725863D02*
X200375790Y-142678244D01*
X200375790Y-142678244D02*
X200328171Y-142583006D01*
X200328171Y-142583006D02*
X200328171Y-142392530D01*
X200328171Y-142392530D02*
X200375790Y-142297292D01*
X200375790Y-142297292D02*
X200423409Y-142249673D01*
X200423409Y-142249673D02*
X200518647Y-142202054D01*
X182167219Y-142440149D02*
X182167219Y-142535387D01*
X182167219Y-142535387D02*
X182214838Y-142630625D01*
X182214838Y-142630625D02*
X182262457Y-142678244D01*
X182262457Y-142678244D02*
X182357695Y-142725863D01*
X182357695Y-142725863D02*
X182548171Y-142773482D01*
X182548171Y-142773482D02*
X182786266Y-142773482D01*
X182786266Y-142773482D02*
X182976742Y-142725863D01*
X182976742Y-142725863D02*
X183071980Y-142678244D01*
X183071980Y-142678244D02*
X183119600Y-142630625D01*
X183119600Y-142630625D02*
X183167219Y-142535387D01*
X183167219Y-142535387D02*
X183167219Y-142440149D01*
X183167219Y-142440149D02*
X183119600Y-142344911D01*
X183119600Y-142344911D02*
X183071980Y-142297292D01*
X183071980Y-142297292D02*
X182976742Y-142249673D01*
X182976742Y-142249673D02*
X182786266Y-142202054D01*
X182786266Y-142202054D02*
X182548171Y-142202054D01*
X182548171Y-142202054D02*
X182357695Y-142249673D01*
X182357695Y-142249673D02*
X182262457Y-142297292D01*
X182262457Y-142297292D02*
X182214838Y-142344911D01*
X182214838Y-142344911D02*
X182167219Y-142440149D01*
X187294838Y-142773482D02*
X187247219Y-142678244D01*
X187247219Y-142678244D02*
X187247219Y-142535387D01*
X187247219Y-142535387D02*
X187294838Y-142392530D01*
X187294838Y-142392530D02*
X187390076Y-142297292D01*
X187390076Y-142297292D02*
X187485314Y-142249673D01*
X187485314Y-142249673D02*
X187675790Y-142202054D01*
X187675790Y-142202054D02*
X187818647Y-142202054D01*
X187818647Y-142202054D02*
X188009123Y-142249673D01*
X188009123Y-142249673D02*
X188104361Y-142297292D01*
X188104361Y-142297292D02*
X188199600Y-142392530D01*
X188199600Y-142392530D02*
X188247219Y-142535387D01*
X188247219Y-142535387D02*
X188247219Y-142630625D01*
X188247219Y-142630625D02*
X188199600Y-142773482D01*
X188199600Y-142773482D02*
X188151980Y-142821101D01*
X188151980Y-142821101D02*
X187818647Y-142821101D01*
X187818647Y-142821101D02*
X187818647Y-142630625D01*
X188247219Y-143249673D02*
X187247219Y-143249673D01*
X187247219Y-143249673D02*
X188247219Y-143821101D01*
X188247219Y-143821101D02*
X187247219Y-143821101D01*
X188247219Y-144297292D02*
X187247219Y-144297292D01*
X187247219Y-144297292D02*
X187247219Y-144535387D01*
X187247219Y-144535387D02*
X187294838Y-144678244D01*
X187294838Y-144678244D02*
X187390076Y-144773482D01*
X187390076Y-144773482D02*
X187485314Y-144821101D01*
X187485314Y-144821101D02*
X187675790Y-144868720D01*
X187675790Y-144868720D02*
X187818647Y-144868720D01*
X187818647Y-144868720D02*
X188009123Y-144821101D01*
X188009123Y-144821101D02*
X188104361Y-144773482D01*
X188104361Y-144773482D02*
X188199600Y-144678244D01*
X188199600Y-144678244D02*
X188247219Y-144535387D01*
X188247219Y-144535387D02*
X188247219Y-144297292D01*
X206027219Y-137085714D02*
X206027219Y-136514286D01*
X206027219Y-136800000D02*
X205027219Y-136800000D01*
X205027219Y-136800000D02*
X205170076Y-136704762D01*
X205170076Y-136704762D02*
X205265314Y-136609524D01*
X205265314Y-136609524D02*
X205312933Y-136514286D01*
X200947219Y-120285564D02*
X200947219Y-119714136D01*
X200947219Y-119999850D02*
X199947219Y-119999850D01*
X199947219Y-119999850D02*
X200090076Y-119904612D01*
X200090076Y-119904612D02*
X200185314Y-119809374D01*
X200185314Y-119809374D02*
X200232933Y-119714136D01*
X199947219Y-121190326D02*
X199947219Y-120714136D01*
X199947219Y-120714136D02*
X200423409Y-120666517D01*
X200423409Y-120666517D02*
X200375790Y-120714136D01*
X200375790Y-120714136D02*
X200328171Y-120809374D01*
X200328171Y-120809374D02*
X200328171Y-121047469D01*
X200328171Y-121047469D02*
X200375790Y-121142707D01*
X200375790Y-121142707D02*
X200423409Y-121190326D01*
X200423409Y-121190326D02*
X200518647Y-121237945D01*
X200518647Y-121237945D02*
X200756742Y-121237945D01*
X200756742Y-121237945D02*
X200851980Y-121190326D01*
X200851980Y-121190326D02*
X200899600Y-121142707D01*
X200899600Y-121142707D02*
X200947219Y-121047469D01*
X200947219Y-121047469D02*
X200947219Y-120809374D01*
X200947219Y-120809374D02*
X200899600Y-120714136D01*
X200899600Y-120714136D02*
X200851980Y-120666517D01*
X206027219Y-120285564D02*
X206027219Y-119714136D01*
X206027219Y-119999850D02*
X205027219Y-119999850D01*
X205027219Y-119999850D02*
X205170076Y-119904612D01*
X205170076Y-119904612D02*
X205265314Y-119809374D01*
X205265314Y-119809374D02*
X205312933Y-119714136D01*
X205027219Y-121142707D02*
X205027219Y-120952231D01*
X205027219Y-120952231D02*
X205074838Y-120856993D01*
X205074838Y-120856993D02*
X205122457Y-120809374D01*
X205122457Y-120809374D02*
X205265314Y-120714136D01*
X205265314Y-120714136D02*
X205455790Y-120666517D01*
X205455790Y-120666517D02*
X205836742Y-120666517D01*
X205836742Y-120666517D02*
X205931980Y-120714136D01*
X205931980Y-120714136D02*
X205979600Y-120761755D01*
X205979600Y-120761755D02*
X206027219Y-120856993D01*
X206027219Y-120856993D02*
X206027219Y-121047469D01*
X206027219Y-121047469D02*
X205979600Y-121142707D01*
X205979600Y-121142707D02*
X205931980Y-121190326D01*
X205931980Y-121190326D02*
X205836742Y-121237945D01*
X205836742Y-121237945D02*
X205598647Y-121237945D01*
X205598647Y-121237945D02*
X205503409Y-121190326D01*
X205503409Y-121190326D02*
X205455790Y-121142707D01*
X205455790Y-121142707D02*
X205408171Y-121047469D01*
X205408171Y-121047469D02*
X205408171Y-120856993D01*
X205408171Y-120856993D02*
X205455790Y-120761755D01*
X205455790Y-120761755D02*
X205503409Y-120714136D01*
X205503409Y-120714136D02*
X205598647Y-120666517D01*
X203487219Y-120285564D02*
X203487219Y-119714136D01*
X203487219Y-119999850D02*
X202487219Y-119999850D01*
X202487219Y-119999850D02*
X202630076Y-119904612D01*
X202630076Y-119904612D02*
X202725314Y-119809374D01*
X202725314Y-119809374D02*
X202772933Y-119714136D01*
X202820552Y-121142707D02*
X203487219Y-121142707D01*
X202439600Y-120904612D02*
X203153885Y-120666517D01*
X203153885Y-120666517D02*
X203153885Y-121285564D01*
X182214838Y-119142707D02*
X182167219Y-119047469D01*
X182167219Y-119047469D02*
X182167219Y-118904612D01*
X182167219Y-118904612D02*
X182214838Y-118761755D01*
X182214838Y-118761755D02*
X182310076Y-118666517D01*
X182310076Y-118666517D02*
X182405314Y-118618898D01*
X182405314Y-118618898D02*
X182595790Y-118571279D01*
X182595790Y-118571279D02*
X182738647Y-118571279D01*
X182738647Y-118571279D02*
X182929123Y-118618898D01*
X182929123Y-118618898D02*
X183024361Y-118666517D01*
X183024361Y-118666517D02*
X183119600Y-118761755D01*
X183119600Y-118761755D02*
X183167219Y-118904612D01*
X183167219Y-118904612D02*
X183167219Y-118999850D01*
X183167219Y-118999850D02*
X183119600Y-119142707D01*
X183119600Y-119142707D02*
X183071980Y-119190326D01*
X183071980Y-119190326D02*
X182738647Y-119190326D01*
X182738647Y-119190326D02*
X182738647Y-118999850D01*
X183167219Y-119618898D02*
X182167219Y-119618898D01*
X182167219Y-119618898D02*
X183167219Y-120190326D01*
X183167219Y-120190326D02*
X182167219Y-120190326D01*
X183167219Y-120666517D02*
X182167219Y-120666517D01*
X182167219Y-120666517D02*
X182167219Y-120904612D01*
X182167219Y-120904612D02*
X182214838Y-121047469D01*
X182214838Y-121047469D02*
X182310076Y-121142707D01*
X182310076Y-121142707D02*
X182405314Y-121190326D01*
X182405314Y-121190326D02*
X182595790Y-121237945D01*
X182595790Y-121237945D02*
X182738647Y-121237945D01*
X182738647Y-121237945D02*
X182929123Y-121190326D01*
X182929123Y-121190326D02*
X183024361Y-121142707D01*
X183024361Y-121142707D02*
X183119600Y-121047469D01*
X183119600Y-121047469D02*
X183167219Y-120904612D01*
X183167219Y-120904612D02*
X183167219Y-120666517D01*
X184754838Y-142773482D02*
X184707219Y-142678244D01*
X184707219Y-142678244D02*
X184707219Y-142535387D01*
X184707219Y-142535387D02*
X184754838Y-142392530D01*
X184754838Y-142392530D02*
X184850076Y-142297292D01*
X184850076Y-142297292D02*
X184945314Y-142249673D01*
X184945314Y-142249673D02*
X185135790Y-142202054D01*
X185135790Y-142202054D02*
X185278647Y-142202054D01*
X185278647Y-142202054D02*
X185469123Y-142249673D01*
X185469123Y-142249673D02*
X185564361Y-142297292D01*
X185564361Y-142297292D02*
X185659600Y-142392530D01*
X185659600Y-142392530D02*
X185707219Y-142535387D01*
X185707219Y-142535387D02*
X185707219Y-142630625D01*
X185707219Y-142630625D02*
X185659600Y-142773482D01*
X185659600Y-142773482D02*
X185611980Y-142821101D01*
X185611980Y-142821101D02*
X185278647Y-142821101D01*
X185278647Y-142821101D02*
X185278647Y-142630625D01*
X185707219Y-143249673D02*
X184707219Y-143249673D01*
X184707219Y-143249673D02*
X185707219Y-143821101D01*
X185707219Y-143821101D02*
X184707219Y-143821101D01*
X185707219Y-144297292D02*
X184707219Y-144297292D01*
X184707219Y-144297292D02*
X184707219Y-144535387D01*
X184707219Y-144535387D02*
X184754838Y-144678244D01*
X184754838Y-144678244D02*
X184850076Y-144773482D01*
X184850076Y-144773482D02*
X184945314Y-144821101D01*
X184945314Y-144821101D02*
X185135790Y-144868720D01*
X185135790Y-144868720D02*
X185278647Y-144868720D01*
X185278647Y-144868720D02*
X185469123Y-144821101D01*
X185469123Y-144821101D02*
X185564361Y-144773482D01*
X185564361Y-144773482D02*
X185659600Y-144678244D01*
X185659600Y-144678244D02*
X185707219Y-144535387D01*
X185707219Y-144535387D02*
X185707219Y-144297292D01*
X180103409Y-119761755D02*
X180151028Y-119904612D01*
X180151028Y-119904612D02*
X180198647Y-119952231D01*
X180198647Y-119952231D02*
X180293885Y-119999850D01*
X180293885Y-119999850D02*
X180436742Y-119999850D01*
X180436742Y-119999850D02*
X180531980Y-119952231D01*
X180531980Y-119952231D02*
X180579600Y-119904612D01*
X180579600Y-119904612D02*
X180627219Y-119809374D01*
X180627219Y-119809374D02*
X180627219Y-119428422D01*
X180627219Y-119428422D02*
X179627219Y-119428422D01*
X179627219Y-119428422D02*
X179627219Y-119761755D01*
X179627219Y-119761755D02*
X179674838Y-119856993D01*
X179674838Y-119856993D02*
X179722457Y-119904612D01*
X179722457Y-119904612D02*
X179817695Y-119952231D01*
X179817695Y-119952231D02*
X179912933Y-119952231D01*
X179912933Y-119952231D02*
X180008171Y-119904612D01*
X180008171Y-119904612D02*
X180055790Y-119856993D01*
X180055790Y-119856993D02*
X180103409Y-119761755D01*
X180103409Y-119761755D02*
X180103409Y-119428422D01*
X180246266Y-120428422D02*
X180246266Y-121190327D01*
X180627219Y-120809374D02*
X179865314Y-120809374D01*
X185707219Y-119523659D02*
X185231028Y-119190326D01*
X185707219Y-118952231D02*
X184707219Y-118952231D01*
X184707219Y-118952231D02*
X184707219Y-119333183D01*
X184707219Y-119333183D02*
X184754838Y-119428421D01*
X184754838Y-119428421D02*
X184802457Y-119476040D01*
X184802457Y-119476040D02*
X184897695Y-119523659D01*
X184897695Y-119523659D02*
X185040552Y-119523659D01*
X185040552Y-119523659D02*
X185135790Y-119476040D01*
X185135790Y-119476040D02*
X185183409Y-119428421D01*
X185183409Y-119428421D02*
X185231028Y-119333183D01*
X185231028Y-119333183D02*
X185231028Y-118952231D01*
X185659600Y-119904612D02*
X185707219Y-120047469D01*
X185707219Y-120047469D02*
X185707219Y-120285564D01*
X185707219Y-120285564D02*
X185659600Y-120380802D01*
X185659600Y-120380802D02*
X185611980Y-120428421D01*
X185611980Y-120428421D02*
X185516742Y-120476040D01*
X185516742Y-120476040D02*
X185421504Y-120476040D01*
X185421504Y-120476040D02*
X185326266Y-120428421D01*
X185326266Y-120428421D02*
X185278647Y-120380802D01*
X185278647Y-120380802D02*
X185231028Y-120285564D01*
X185231028Y-120285564D02*
X185183409Y-120095088D01*
X185183409Y-120095088D02*
X185135790Y-119999850D01*
X185135790Y-119999850D02*
X185088171Y-119952231D01*
X185088171Y-119952231D02*
X184992933Y-119904612D01*
X184992933Y-119904612D02*
X184897695Y-119904612D01*
X184897695Y-119904612D02*
X184802457Y-119952231D01*
X184802457Y-119952231D02*
X184754838Y-119999850D01*
X184754838Y-119999850D02*
X184707219Y-120095088D01*
X184707219Y-120095088D02*
X184707219Y-120333183D01*
X184707219Y-120333183D02*
X184754838Y-120476040D01*
X184707219Y-120761755D02*
X184707219Y-121333183D01*
X185707219Y-121047469D02*
X184707219Y-121047469D01*
X189882457Y-119714136D02*
X189834838Y-119761755D01*
X189834838Y-119761755D02*
X189787219Y-119856993D01*
X189787219Y-119856993D02*
X189787219Y-120095088D01*
X189787219Y-120095088D02*
X189834838Y-120190326D01*
X189834838Y-120190326D02*
X189882457Y-120237945D01*
X189882457Y-120237945D02*
X189977695Y-120285564D01*
X189977695Y-120285564D02*
X190072933Y-120285564D01*
X190072933Y-120285564D02*
X190215790Y-120237945D01*
X190215790Y-120237945D02*
X190787219Y-119666517D01*
X190787219Y-119666517D02*
X190787219Y-120285564D01*
X190787219Y-121237945D02*
X190787219Y-120666517D01*
X190787219Y-120952231D02*
X189787219Y-120952231D01*
X189787219Y-120952231D02*
X189930076Y-120856993D01*
X189930076Y-120856993D02*
X190025314Y-120761755D01*
X190025314Y-120761755D02*
X190072933Y-120666517D01*
X195867219Y-120285564D02*
X195867219Y-119714136D01*
X195867219Y-119999850D02*
X194867219Y-119999850D01*
X194867219Y-119999850D02*
X195010076Y-119904612D01*
X195010076Y-119904612D02*
X195105314Y-119809374D01*
X195105314Y-119809374D02*
X195152933Y-119714136D01*
X195867219Y-120761755D02*
X195867219Y-120952231D01*
X195867219Y-120952231D02*
X195819600Y-121047469D01*
X195819600Y-121047469D02*
X195771980Y-121095088D01*
X195771980Y-121095088D02*
X195629123Y-121190326D01*
X195629123Y-121190326D02*
X195438647Y-121237945D01*
X195438647Y-121237945D02*
X195057695Y-121237945D01*
X195057695Y-121237945D02*
X194962457Y-121190326D01*
X194962457Y-121190326D02*
X194914838Y-121142707D01*
X194914838Y-121142707D02*
X194867219Y-121047469D01*
X194867219Y-121047469D02*
X194867219Y-120856993D01*
X194867219Y-120856993D02*
X194914838Y-120761755D01*
X194914838Y-120761755D02*
X194962457Y-120714136D01*
X194962457Y-120714136D02*
X195057695Y-120666517D01*
X195057695Y-120666517D02*
X195295790Y-120666517D01*
X195295790Y-120666517D02*
X195391028Y-120714136D01*
X195391028Y-120714136D02*
X195438647Y-120761755D01*
X195438647Y-120761755D02*
X195486266Y-120856993D01*
X195486266Y-120856993D02*
X195486266Y-121047469D01*
X195486266Y-121047469D02*
X195438647Y-121142707D01*
X195438647Y-121142707D02*
X195391028Y-121190326D01*
X195391028Y-121190326D02*
X195295790Y-121237945D01*
X208567219Y-142297292D02*
X208567219Y-142487768D01*
X208567219Y-142487768D02*
X208519600Y-142583006D01*
X208519600Y-142583006D02*
X208471980Y-142630625D01*
X208471980Y-142630625D02*
X208329123Y-142725863D01*
X208329123Y-142725863D02*
X208138647Y-142773482D01*
X208138647Y-142773482D02*
X207757695Y-142773482D01*
X207757695Y-142773482D02*
X207662457Y-142725863D01*
X207662457Y-142725863D02*
X207614838Y-142678244D01*
X207614838Y-142678244D02*
X207567219Y-142583006D01*
X207567219Y-142583006D02*
X207567219Y-142392530D01*
X207567219Y-142392530D02*
X207614838Y-142297292D01*
X207614838Y-142297292D02*
X207662457Y-142249673D01*
X207662457Y-142249673D02*
X207757695Y-142202054D01*
X207757695Y-142202054D02*
X207995790Y-142202054D01*
X207995790Y-142202054D02*
X208091028Y-142249673D01*
X208091028Y-142249673D02*
X208138647Y-142297292D01*
X208138647Y-142297292D02*
X208186266Y-142392530D01*
X208186266Y-142392530D02*
X208186266Y-142583006D01*
X208186266Y-142583006D02*
X208138647Y-142678244D01*
X208138647Y-142678244D02*
X208091028Y-142725863D01*
X208091028Y-142725863D02*
X207995790Y-142773482D01*
X202487219Y-142154435D02*
X202487219Y-142821101D01*
X202487219Y-142821101D02*
X203487219Y-142392530D01*
X180627219Y-142773482D02*
X180627219Y-142202054D01*
X180627219Y-142487768D02*
X179627219Y-142487768D01*
X179627219Y-142487768D02*
X179770076Y-142392530D01*
X179770076Y-142392530D02*
X179865314Y-142297292D01*
X179865314Y-142297292D02*
X179912933Y-142202054D01*
X208567219Y-120285564D02*
X208567219Y-119714136D01*
X208567219Y-119999850D02*
X207567219Y-119999850D01*
X207567219Y-119999850D02*
X207710076Y-119904612D01*
X207710076Y-119904612D02*
X207805314Y-119809374D01*
X207805314Y-119809374D02*
X207852933Y-119714136D01*
X207567219Y-120904612D02*
X207567219Y-120999850D01*
X207567219Y-120999850D02*
X207614838Y-121095088D01*
X207614838Y-121095088D02*
X207662457Y-121142707D01*
X207662457Y-121142707D02*
X207757695Y-121190326D01*
X207757695Y-121190326D02*
X207948171Y-121237945D01*
X207948171Y-121237945D02*
X208186266Y-121237945D01*
X208186266Y-121237945D02*
X208376742Y-121190326D01*
X208376742Y-121190326D02*
X208471980Y-121142707D01*
X208471980Y-121142707D02*
X208519600Y-121095088D01*
X208519600Y-121095088D02*
X208567219Y-120999850D01*
X208567219Y-120999850D02*
X208567219Y-120904612D01*
X208567219Y-120904612D02*
X208519600Y-120809374D01*
X208519600Y-120809374D02*
X208471980Y-120761755D01*
X208471980Y-120761755D02*
X208376742Y-120714136D01*
X208376742Y-120714136D02*
X208186266Y-120666517D01*
X208186266Y-120666517D02*
X207948171Y-120666517D01*
X207948171Y-120666517D02*
X207757695Y-120714136D01*
X207757695Y-120714136D02*
X207662457Y-120761755D01*
X207662457Y-120761755D02*
X207614838Y-120809374D01*
X207614838Y-120809374D02*
X207567219Y-120904612D01*
X198407219Y-120285564D02*
X198407219Y-119714136D01*
X198407219Y-119999850D02*
X197407219Y-119999850D01*
X197407219Y-119999850D02*
X197550076Y-119904612D01*
X197550076Y-119904612D02*
X197645314Y-119809374D01*
X197645314Y-119809374D02*
X197692933Y-119714136D01*
X197835790Y-120856993D02*
X197788171Y-120761755D01*
X197788171Y-120761755D02*
X197740552Y-120714136D01*
X197740552Y-120714136D02*
X197645314Y-120666517D01*
X197645314Y-120666517D02*
X197597695Y-120666517D01*
X197597695Y-120666517D02*
X197502457Y-120714136D01*
X197502457Y-120714136D02*
X197454838Y-120761755D01*
X197454838Y-120761755D02*
X197407219Y-120856993D01*
X197407219Y-120856993D02*
X197407219Y-121047469D01*
X197407219Y-121047469D02*
X197454838Y-121142707D01*
X197454838Y-121142707D02*
X197502457Y-121190326D01*
X197502457Y-121190326D02*
X197597695Y-121237945D01*
X197597695Y-121237945D02*
X197645314Y-121237945D01*
X197645314Y-121237945D02*
X197740552Y-121190326D01*
X197740552Y-121190326D02*
X197788171Y-121142707D01*
X197788171Y-121142707D02*
X197835790Y-121047469D01*
X197835790Y-121047469D02*
X197835790Y-120856993D01*
X197835790Y-120856993D02*
X197883409Y-120761755D01*
X197883409Y-120761755D02*
X197931028Y-120714136D01*
X197931028Y-120714136D02*
X198026266Y-120666517D01*
X198026266Y-120666517D02*
X198216742Y-120666517D01*
X198216742Y-120666517D02*
X198311980Y-120714136D01*
X198311980Y-120714136D02*
X198359600Y-120761755D01*
X198359600Y-120761755D02*
X198407219Y-120856993D01*
X198407219Y-120856993D02*
X198407219Y-121047469D01*
X198407219Y-121047469D02*
X198359600Y-121142707D01*
X198359600Y-121142707D02*
X198311980Y-121190326D01*
X198311980Y-121190326D02*
X198216742Y-121237945D01*
X198216742Y-121237945D02*
X198026266Y-121237945D01*
X198026266Y-121237945D02*
X197931028Y-121190326D01*
X197931028Y-121190326D02*
X197883409Y-121142707D01*
X197883409Y-121142707D02*
X197835790Y-121047469D01*
X192422457Y-119714136D02*
X192374838Y-119761755D01*
X192374838Y-119761755D02*
X192327219Y-119856993D01*
X192327219Y-119856993D02*
X192327219Y-120095088D01*
X192327219Y-120095088D02*
X192374838Y-120190326D01*
X192374838Y-120190326D02*
X192422457Y-120237945D01*
X192422457Y-120237945D02*
X192517695Y-120285564D01*
X192517695Y-120285564D02*
X192612933Y-120285564D01*
X192612933Y-120285564D02*
X192755790Y-120237945D01*
X192755790Y-120237945D02*
X193327219Y-119666517D01*
X193327219Y-119666517D02*
X193327219Y-120285564D01*
X192327219Y-120904612D02*
X192327219Y-120999850D01*
X192327219Y-120999850D02*
X192374838Y-121095088D01*
X192374838Y-121095088D02*
X192422457Y-121142707D01*
X192422457Y-121142707D02*
X192517695Y-121190326D01*
X192517695Y-121190326D02*
X192708171Y-121237945D01*
X192708171Y-121237945D02*
X192946266Y-121237945D01*
X192946266Y-121237945D02*
X193136742Y-121190326D01*
X193136742Y-121190326D02*
X193231980Y-121142707D01*
X193231980Y-121142707D02*
X193279600Y-121095088D01*
X193279600Y-121095088D02*
X193327219Y-120999850D01*
X193327219Y-120999850D02*
X193327219Y-120904612D01*
X193327219Y-120904612D02*
X193279600Y-120809374D01*
X193279600Y-120809374D02*
X193231980Y-120761755D01*
X193231980Y-120761755D02*
X193136742Y-120714136D01*
X193136742Y-120714136D02*
X192946266Y-120666517D01*
X192946266Y-120666517D02*
X192708171Y-120666517D01*
X192708171Y-120666517D02*
X192517695Y-120714136D01*
X192517695Y-120714136D02*
X192422457Y-120761755D01*
X192422457Y-120761755D02*
X192374838Y-120809374D01*
X192374838Y-120809374D02*
X192327219Y-120904612D01*
X189882457Y-142202054D02*
X189834838Y-142249673D01*
X189834838Y-142249673D02*
X189787219Y-142344911D01*
X189787219Y-142344911D02*
X189787219Y-142583006D01*
X189787219Y-142583006D02*
X189834838Y-142678244D01*
X189834838Y-142678244D02*
X189882457Y-142725863D01*
X189882457Y-142725863D02*
X189977695Y-142773482D01*
X189977695Y-142773482D02*
X190072933Y-142773482D01*
X190072933Y-142773482D02*
X190215790Y-142725863D01*
X190215790Y-142725863D02*
X190787219Y-142154435D01*
X190787219Y-142154435D02*
X190787219Y-142773482D01*
X192327219Y-142154435D02*
X192327219Y-142773482D01*
X192327219Y-142773482D02*
X192708171Y-142440149D01*
X192708171Y-142440149D02*
X192708171Y-142583006D01*
X192708171Y-142583006D02*
X192755790Y-142678244D01*
X192755790Y-142678244D02*
X192803409Y-142725863D01*
X192803409Y-142725863D02*
X192898647Y-142773482D01*
X192898647Y-142773482D02*
X193136742Y-142773482D01*
X193136742Y-142773482D02*
X193231980Y-142725863D01*
X193231980Y-142725863D02*
X193279600Y-142678244D01*
X193279600Y-142678244D02*
X193327219Y-142583006D01*
X193327219Y-142583006D02*
X193327219Y-142297292D01*
X193327219Y-142297292D02*
X193279600Y-142202054D01*
X193279600Y-142202054D02*
X193231980Y-142154435D01*
X195200552Y-142678244D02*
X195867219Y-142678244D01*
X194819600Y-142440149D02*
X195533885Y-142202054D01*
X195533885Y-142202054D02*
X195533885Y-142821101D01*
X197407219Y-142725863D02*
X197407219Y-142249673D01*
X197407219Y-142249673D02*
X197883409Y-142202054D01*
X197883409Y-142202054D02*
X197835790Y-142249673D01*
X197835790Y-142249673D02*
X197788171Y-142344911D01*
X197788171Y-142344911D02*
X197788171Y-142583006D01*
X197788171Y-142583006D02*
X197835790Y-142678244D01*
X197835790Y-142678244D02*
X197883409Y-142725863D01*
X197883409Y-142725863D02*
X197978647Y-142773482D01*
X197978647Y-142773482D02*
X198216742Y-142773482D01*
X198216742Y-142773482D02*
X198311980Y-142725863D01*
X198311980Y-142725863D02*
X198359600Y-142678244D01*
X198359600Y-142678244D02*
X198407219Y-142583006D01*
X198407219Y-142583006D02*
X198407219Y-142344911D01*
X198407219Y-142344911D02*
X198359600Y-142249673D01*
X198359600Y-142249673D02*
X198311980Y-142202054D01*
X205455790Y-142392530D02*
X205408171Y-142297292D01*
X205408171Y-142297292D02*
X205360552Y-142249673D01*
X205360552Y-142249673D02*
X205265314Y-142202054D01*
X205265314Y-142202054D02*
X205217695Y-142202054D01*
X205217695Y-142202054D02*
X205122457Y-142249673D01*
X205122457Y-142249673D02*
X205074838Y-142297292D01*
X205074838Y-142297292D02*
X205027219Y-142392530D01*
X205027219Y-142392530D02*
X205027219Y-142583006D01*
X205027219Y-142583006D02*
X205074838Y-142678244D01*
X205074838Y-142678244D02*
X205122457Y-142725863D01*
X205122457Y-142725863D02*
X205217695Y-142773482D01*
X205217695Y-142773482D02*
X205265314Y-142773482D01*
X205265314Y-142773482D02*
X205360552Y-142725863D01*
X205360552Y-142725863D02*
X205408171Y-142678244D01*
X205408171Y-142678244D02*
X205455790Y-142583006D01*
X205455790Y-142583006D02*
X205455790Y-142392530D01*
X205455790Y-142392530D02*
X205503409Y-142297292D01*
X205503409Y-142297292D02*
X205551028Y-142249673D01*
X205551028Y-142249673D02*
X205646266Y-142202054D01*
X205646266Y-142202054D02*
X205836742Y-142202054D01*
X205836742Y-142202054D02*
X205931980Y-142249673D01*
X205931980Y-142249673D02*
X205979600Y-142297292D01*
X205979600Y-142297292D02*
X206027219Y-142392530D01*
X206027219Y-142392530D02*
X206027219Y-142583006D01*
X206027219Y-142583006D02*
X205979600Y-142678244D01*
X205979600Y-142678244D02*
X205931980Y-142725863D01*
X205931980Y-142725863D02*
X205836742Y-142773482D01*
X205836742Y-142773482D02*
X205646266Y-142773482D01*
X205646266Y-142773482D02*
X205551028Y-142725863D01*
X205551028Y-142725863D02*
X205503409Y-142678244D01*
X205503409Y-142678244D02*
X205455790Y-142583006D01*
X187247219Y-118428422D02*
X187247219Y-119047469D01*
X187247219Y-119047469D02*
X187628171Y-118714136D01*
X187628171Y-118714136D02*
X187628171Y-118856993D01*
X187628171Y-118856993D02*
X187675790Y-118952231D01*
X187675790Y-118952231D02*
X187723409Y-118999850D01*
X187723409Y-118999850D02*
X187818647Y-119047469D01*
X187818647Y-119047469D02*
X188056742Y-119047469D01*
X188056742Y-119047469D02*
X188151980Y-118999850D01*
X188151980Y-118999850D02*
X188199600Y-118952231D01*
X188199600Y-118952231D02*
X188247219Y-118856993D01*
X188247219Y-118856993D02*
X188247219Y-118571279D01*
X188247219Y-118571279D02*
X188199600Y-118476041D01*
X188199600Y-118476041D02*
X188151980Y-118428422D01*
X188151980Y-119476041D02*
X188199600Y-119523660D01*
X188199600Y-119523660D02*
X188247219Y-119476041D01*
X188247219Y-119476041D02*
X188199600Y-119428422D01*
X188199600Y-119428422D02*
X188151980Y-119476041D01*
X188151980Y-119476041D02*
X188247219Y-119476041D01*
X187247219Y-119856993D02*
X187247219Y-120476040D01*
X187247219Y-120476040D02*
X187628171Y-120142707D01*
X187628171Y-120142707D02*
X187628171Y-120285564D01*
X187628171Y-120285564D02*
X187675790Y-120380802D01*
X187675790Y-120380802D02*
X187723409Y-120428421D01*
X187723409Y-120428421D02*
X187818647Y-120476040D01*
X187818647Y-120476040D02*
X188056742Y-120476040D01*
X188056742Y-120476040D02*
X188151980Y-120428421D01*
X188151980Y-120428421D02*
X188199600Y-120380802D01*
X188199600Y-120380802D02*
X188247219Y-120285564D01*
X188247219Y-120285564D02*
X188247219Y-119999850D01*
X188247219Y-119999850D02*
X188199600Y-119904612D01*
X188199600Y-119904612D02*
X188151980Y-119856993D01*
X187580552Y-120809374D02*
X188247219Y-121047469D01*
X188247219Y-121047469D02*
X187580552Y-121285564D01*
%TO.C,U2*%
X176085000Y-122570000D02*
X176085000Y-140870000D01*
X209385000Y-122570000D02*
X176085000Y-122570000D01*
X209385000Y-122570000D02*
X209385000Y-140870000D01*
X209385000Y-140870000D02*
X176085000Y-140870000D01*
D11*
%TO.C,D77*%
X442255000Y-245610000D02*
X442655000Y-246210000D01*
X442655000Y-245610000D02*
X442655000Y-245110000D01*
X442655000Y-246210000D02*
X443055000Y-245610000D01*
X442655000Y-246610000D02*
X442655000Y-246210000D01*
X443055000Y-245610000D02*
X442255000Y-245610000D01*
X443205000Y-246210000D02*
X442105000Y-246210000D01*
%TO.C,D15*%
X175555000Y-169410000D02*
X175955000Y-170010000D01*
X175955000Y-169410000D02*
X175955000Y-168910000D01*
X175955000Y-170010000D02*
X176355000Y-169410000D01*
X175955000Y-170410000D02*
X175955000Y-170010000D01*
X176355000Y-169410000D02*
X175555000Y-169410000D01*
X176505000Y-170010000D02*
X175405000Y-170010000D01*
%TO.C,D65*%
X370817500Y-226560000D02*
X371217500Y-227160000D01*
X371217500Y-226560000D02*
X371217500Y-226060000D01*
X371217500Y-227160000D02*
X371617500Y-226560000D01*
X371217500Y-227560000D02*
X371217500Y-227160000D01*
X371617500Y-226560000D02*
X370817500Y-226560000D01*
X371767500Y-227160000D02*
X370667500Y-227160000D01*
%TO.C,D78*%
X461305000Y-245610000D02*
X461705000Y-246210000D01*
X461705000Y-245610000D02*
X461705000Y-245110000D01*
X461705000Y-246210000D02*
X462105000Y-245610000D01*
X461705000Y-246610000D02*
X461705000Y-246210000D01*
X462105000Y-245610000D02*
X461305000Y-245610000D01*
X462255000Y-246210000D02*
X461155000Y-246210000D01*
%TO.C,D54*%
X399392500Y-207510000D02*
X399792500Y-208110000D01*
X399792500Y-207510000D02*
X399792500Y-207010000D01*
X399792500Y-208110000D02*
X400192500Y-207510000D01*
X399792500Y-208510000D02*
X399792500Y-208110000D01*
X400192500Y-207510000D02*
X399392500Y-207510000D01*
X400342500Y-208110000D02*
X399242500Y-208110000D01*
%TO.C,D67*%
X416061250Y-226560000D02*
X416461250Y-227160000D01*
X416461250Y-226560000D02*
X416461250Y-226060000D01*
X416461250Y-227160000D02*
X416861250Y-226560000D01*
X416461250Y-227560000D02*
X416461250Y-227160000D01*
X416861250Y-226560000D02*
X416061250Y-226560000D01*
X417011250Y-227160000D02*
X415911250Y-227160000D01*
%TO.C,D29*%
X180317500Y-188460000D02*
X180717500Y-189060000D01*
X180717500Y-188460000D02*
X180717500Y-187960000D01*
X180717500Y-189060000D02*
X181117500Y-188460000D01*
X180717500Y-189460000D02*
X180717500Y-189060000D01*
X181117500Y-188460000D02*
X180317500Y-188460000D01*
X181267500Y-189060000D02*
X180167500Y-189060000D01*
%TO.C,D64*%
X351767500Y-226560000D02*
X352167500Y-227160000D01*
X352167500Y-226560000D02*
X352167500Y-226060000D01*
X352167500Y-227160000D02*
X352567500Y-226560000D01*
X352167500Y-227560000D02*
X352167500Y-227160000D01*
X352567500Y-226560000D02*
X351767500Y-226560000D01*
X352717500Y-227160000D02*
X351617500Y-227160000D01*
%TO.C,D75*%
X404155000Y-245610000D02*
X404555000Y-246210000D01*
X404555000Y-245610000D02*
X404555000Y-245110000D01*
X404555000Y-246210000D02*
X404955000Y-245610000D01*
X404555000Y-246610000D02*
X404555000Y-246210000D01*
X404955000Y-245610000D02*
X404155000Y-245610000D01*
X405105000Y-246210000D02*
X404005000Y-246210000D01*
%TO.C,D1*%
X175555000Y-150360000D02*
X175955000Y-150960000D01*
X175955000Y-150360000D02*
X175955000Y-149860000D01*
X175955000Y-150960000D02*
X176355000Y-150360000D01*
X175955000Y-151360000D02*
X175955000Y-150960000D01*
X176355000Y-150360000D02*
X175555000Y-150360000D01*
X176505000Y-150960000D02*
X175405000Y-150960000D01*
%TO.C,D36*%
X318430000Y-188460000D02*
X318830000Y-189060000D01*
X318830000Y-188460000D02*
X318830000Y-187960000D01*
X318830000Y-189060000D02*
X319230000Y-188460000D01*
X318830000Y-189460000D02*
X318830000Y-189060000D01*
X319230000Y-188460000D02*
X318430000Y-188460000D01*
X319380000Y-189060000D02*
X318280000Y-189060000D01*
%TO.C,D27*%
X404155000Y-169410000D02*
X404555000Y-170010000D01*
X404555000Y-169410000D02*
X404555000Y-168910000D01*
X404555000Y-170010000D02*
X404955000Y-169410000D01*
X404555000Y-170410000D02*
X404555000Y-170010000D01*
X404955000Y-169410000D02*
X404155000Y-169410000D01*
X405105000Y-170010000D02*
X404005000Y-170010000D01*
%TO.C,D31*%
X223180000Y-188460000D02*
X223580000Y-189060000D01*
X223580000Y-188460000D02*
X223580000Y-187960000D01*
X223580000Y-189060000D02*
X223980000Y-188460000D01*
X223580000Y-189460000D02*
X223580000Y-189060000D01*
X223980000Y-188460000D02*
X223180000Y-188460000D01*
X224130000Y-189060000D02*
X223030000Y-189060000D01*
%TO.C,D49*%
X304142500Y-207510000D02*
X304542500Y-208110000D01*
X304542500Y-207510000D02*
X304542500Y-207010000D01*
X304542500Y-208110000D02*
X304942500Y-207510000D01*
X304542500Y-208510000D02*
X304542500Y-208110000D01*
X304942500Y-207510000D02*
X304142500Y-207510000D01*
X305092500Y-208110000D02*
X303992500Y-208110000D01*
%TO.C,D28*%
X432730000Y-169410000D02*
X433130000Y-170010000D01*
X433130000Y-169410000D02*
X433130000Y-168910000D01*
X433130000Y-170010000D02*
X433530000Y-169410000D01*
X433130000Y-170410000D02*
X433130000Y-170010000D01*
X433530000Y-169410000D02*
X432730000Y-169410000D01*
X433680000Y-170010000D02*
X432580000Y-170010000D01*
%TO.C,D48*%
X285092500Y-207510000D02*
X285492500Y-208110000D01*
X285492500Y-207510000D02*
X285492500Y-207010000D01*
X285492500Y-208110000D02*
X285892500Y-207510000D01*
X285492500Y-208510000D02*
X285492500Y-208110000D01*
X285892500Y-207510000D02*
X285092500Y-207510000D01*
X286042500Y-208110000D02*
X284942500Y-208110000D01*
%TO.C,D2*%
X194605000Y-150360000D02*
X195005000Y-150960000D01*
X195005000Y-150360000D02*
X195005000Y-149860000D01*
X195005000Y-150960000D02*
X195405000Y-150360000D01*
X195005000Y-151360000D02*
X195005000Y-150960000D01*
X195405000Y-150360000D02*
X194605000Y-150360000D01*
X195555000Y-150960000D02*
X194455000Y-150960000D01*
%TO.C,D6*%
X270805000Y-150360000D02*
X271205000Y-150960000D01*
X271205000Y-150360000D02*
X271205000Y-149860000D01*
X271205000Y-150960000D02*
X271605000Y-150360000D01*
X271205000Y-151360000D02*
X271205000Y-150960000D01*
X271605000Y-150360000D02*
X270805000Y-150360000D01*
X271755000Y-150960000D02*
X270655000Y-150960000D01*
%TO.C,D8*%
X308905000Y-150360000D02*
X309305000Y-150960000D01*
X309305000Y-150360000D02*
X309305000Y-149860000D01*
X309305000Y-150960000D02*
X309705000Y-150360000D01*
X309305000Y-151360000D02*
X309305000Y-150960000D01*
X309705000Y-150360000D02*
X308905000Y-150360000D01*
X309855000Y-150960000D02*
X308755000Y-150960000D01*
%TO.C,D53*%
X380342500Y-207510000D02*
X380742500Y-208110000D01*
X380742500Y-207510000D02*
X380742500Y-207010000D01*
X380742500Y-208110000D02*
X381142500Y-207510000D01*
X380742500Y-208510000D02*
X380742500Y-208110000D01*
X381142500Y-207510000D02*
X380342500Y-207510000D01*
X381292500Y-208110000D02*
X380192500Y-208110000D01*
%TO.C,D25*%
X366055000Y-169410000D02*
X366455000Y-170010000D01*
X366455000Y-169410000D02*
X366455000Y-168910000D01*
X366455000Y-170010000D02*
X366855000Y-169410000D01*
X366455000Y-170410000D02*
X366455000Y-170010000D01*
X366855000Y-169410000D02*
X366055000Y-169410000D01*
X367005000Y-170010000D02*
X365905000Y-170010000D01*
%TO.C,D40*%
X394630000Y-188460000D02*
X395030000Y-189060000D01*
X395030000Y-188460000D02*
X395030000Y-187960000D01*
X395030000Y-189060000D02*
X395430000Y-188460000D01*
X395030000Y-189460000D02*
X395030000Y-189060000D01*
X395430000Y-188460000D02*
X394630000Y-188460000D01*
X395580000Y-189060000D02*
X394480000Y-189060000D01*
%TO.C,D4*%
X232705000Y-150360000D02*
X233105000Y-150960000D01*
X233105000Y-150360000D02*
X233105000Y-149860000D01*
X233105000Y-150960000D02*
X233505000Y-150360000D01*
X233105000Y-151360000D02*
X233105000Y-150960000D01*
X233505000Y-150360000D02*
X232705000Y-150360000D01*
X233655000Y-150960000D02*
X232555000Y-150960000D01*
%TO.C,D70*%
X201748750Y-245610000D02*
X202148750Y-246210000D01*
X202148750Y-245610000D02*
X202148750Y-245110000D01*
X202148750Y-246210000D02*
X202548750Y-245610000D01*
X202148750Y-246610000D02*
X202148750Y-246210000D01*
X202548750Y-245610000D02*
X201748750Y-245610000D01*
X202698750Y-246210000D02*
X201598750Y-246210000D01*
%TO.C,D58*%
X237467500Y-226560000D02*
X237867500Y-227160000D01*
X237867500Y-226560000D02*
X237867500Y-226060000D01*
X237867500Y-227160000D02*
X238267500Y-226560000D01*
X237867500Y-227560000D02*
X237867500Y-227160000D01*
X238267500Y-226560000D02*
X237467500Y-226560000D01*
X238417500Y-227160000D02*
X237317500Y-227160000D01*
%TO.C,D32*%
X242230000Y-188460000D02*
X242630000Y-189060000D01*
X242630000Y-188460000D02*
X242630000Y-187960000D01*
X242630000Y-189060000D02*
X243030000Y-188460000D01*
X242630000Y-189460000D02*
X242630000Y-189060000D01*
X243030000Y-188460000D02*
X242230000Y-188460000D01*
X243180000Y-189060000D02*
X242080000Y-189060000D01*
%TO.C,D23*%
X327955000Y-169410000D02*
X328355000Y-170010000D01*
X328355000Y-169410000D02*
X328355000Y-168910000D01*
X328355000Y-170010000D02*
X328755000Y-169410000D01*
X328355000Y-170410000D02*
X328355000Y-170010000D01*
X328755000Y-169410000D02*
X327955000Y-169410000D01*
X328905000Y-170010000D02*
X327805000Y-170010000D01*
%TO.C,D55*%
X430348750Y-207510000D02*
X430748750Y-208110000D01*
X430748750Y-207510000D02*
X430748750Y-207010000D01*
X430748750Y-208110000D02*
X431148750Y-207510000D01*
X430748750Y-208510000D02*
X430748750Y-208110000D01*
X431148750Y-207510000D02*
X430348750Y-207510000D01*
X431298750Y-208110000D02*
X430198750Y-208110000D01*
%TO.C,D14*%
X461305000Y-150360000D02*
X461705000Y-150960000D01*
X461705000Y-150360000D02*
X461705000Y-149860000D01*
X461705000Y-150960000D02*
X462105000Y-150360000D01*
X461705000Y-151360000D02*
X461705000Y-150960000D01*
X462105000Y-150360000D02*
X461305000Y-150360000D01*
X462255000Y-150960000D02*
X461155000Y-150960000D01*
%TO.C,D74*%
X385105000Y-245610000D02*
X385505000Y-246210000D01*
X385505000Y-245610000D02*
X385505000Y-245110000D01*
X385505000Y-246210000D02*
X385905000Y-245610000D01*
X385505000Y-246610000D02*
X385505000Y-246210000D01*
X385905000Y-245610000D02*
X385105000Y-245610000D01*
X386055000Y-246210000D02*
X384955000Y-246210000D01*
%TO.C,D76*%
X423205000Y-245610000D02*
X423605000Y-246210000D01*
X423605000Y-245610000D02*
X423605000Y-245110000D01*
X423605000Y-246210000D02*
X424005000Y-245610000D01*
X423605000Y-246610000D02*
X423605000Y-246210000D01*
X424005000Y-245610000D02*
X423205000Y-245610000D01*
X424155000Y-246210000D02*
X423055000Y-246210000D01*
%TO.C,D7*%
X289855000Y-150360000D02*
X290255000Y-150960000D01*
X290255000Y-150360000D02*
X290255000Y-149860000D01*
X290255000Y-150960000D02*
X290655000Y-150360000D01*
X290255000Y-151360000D02*
X290255000Y-150960000D01*
X290655000Y-150360000D02*
X289855000Y-150360000D01*
X290805000Y-150960000D02*
X289705000Y-150960000D01*
%TO.C,D69*%
X177936250Y-245610000D02*
X178336250Y-246210000D01*
X178336250Y-245610000D02*
X178336250Y-245110000D01*
X178336250Y-246210000D02*
X178736250Y-245610000D01*
X178336250Y-246610000D02*
X178336250Y-246210000D01*
X178736250Y-245610000D02*
X177936250Y-245610000D01*
X178886250Y-246210000D02*
X177786250Y-246210000D01*
%TO.C,D52*%
X361292500Y-207510000D02*
X361692500Y-208110000D01*
X361692500Y-207510000D02*
X361692500Y-207010000D01*
X361692500Y-208110000D02*
X362092500Y-207510000D01*
X361692500Y-208510000D02*
X361692500Y-208110000D01*
X362092500Y-207510000D02*
X361292500Y-207510000D01*
X362242500Y-208110000D02*
X361142500Y-208110000D01*
%TO.C,D24*%
X347005000Y-169410000D02*
X347405000Y-170010000D01*
X347405000Y-169410000D02*
X347405000Y-168910000D01*
X347405000Y-170010000D02*
X347805000Y-169410000D01*
X347405000Y-170410000D02*
X347405000Y-170010000D01*
X347805000Y-169410000D02*
X347005000Y-169410000D01*
X347955000Y-170010000D02*
X346855000Y-170010000D01*
%TO.C,D5*%
X251755000Y-150360000D02*
X252155000Y-150960000D01*
X252155000Y-150360000D02*
X252155000Y-149860000D01*
X252155000Y-150960000D02*
X252555000Y-150360000D01*
X252155000Y-151360000D02*
X252155000Y-150960000D01*
X252555000Y-150360000D02*
X251755000Y-150360000D01*
X252705000Y-150960000D02*
X251605000Y-150960000D01*
%TO.C,D68*%
X442255000Y-226560000D02*
X442655000Y-227160000D01*
X442655000Y-226560000D02*
X442655000Y-226060000D01*
X442655000Y-227160000D02*
X443055000Y-226560000D01*
X442655000Y-227560000D02*
X442655000Y-227160000D01*
X443055000Y-226560000D02*
X442255000Y-226560000D01*
X443205000Y-227160000D02*
X442105000Y-227160000D01*
%TO.C,D42*%
X437492500Y-188460000D02*
X437892500Y-189060000D01*
X437892500Y-188460000D02*
X437892500Y-187960000D01*
X437892500Y-189060000D02*
X438292500Y-188460000D01*
X437892500Y-189460000D02*
X437892500Y-189060000D01*
X438292500Y-188460000D02*
X437492500Y-188460000D01*
X438442500Y-189060000D02*
X437342500Y-189060000D01*
%TO.C,D41*%
X413680000Y-188460000D02*
X414080000Y-189060000D01*
X414080000Y-188460000D02*
X414080000Y-187960000D01*
X414080000Y-189060000D02*
X414480000Y-188460000D01*
X414080000Y-189460000D02*
X414080000Y-189060000D01*
X414480000Y-188460000D02*
X413680000Y-188460000D01*
X414630000Y-189060000D02*
X413530000Y-189060000D01*
%TO.C,D71*%
X225561250Y-245610000D02*
X225961250Y-246210000D01*
X225961250Y-245610000D02*
X225961250Y-245110000D01*
X225961250Y-246210000D02*
X226361250Y-245610000D01*
X225961250Y-246610000D02*
X225961250Y-246210000D01*
X226361250Y-245610000D02*
X225561250Y-245610000D01*
X226511250Y-246210000D02*
X225411250Y-246210000D01*
%TO.C,D56*%
X187461250Y-226560000D02*
X187861250Y-227160000D01*
X187861250Y-226560000D02*
X187861250Y-226060000D01*
X187861250Y-227160000D02*
X188261250Y-226560000D01*
X187861250Y-227560000D02*
X187861250Y-227160000D01*
X188261250Y-226560000D02*
X187461250Y-226560000D01*
X188411250Y-227160000D02*
X187311250Y-227160000D01*
%TO.C,D26*%
X385105000Y-169410000D02*
X385505000Y-170010000D01*
X385505000Y-169410000D02*
X385505000Y-168910000D01*
X385505000Y-170010000D02*
X385905000Y-169410000D01*
X385505000Y-170410000D02*
X385505000Y-170010000D01*
X385905000Y-169410000D02*
X385105000Y-169410000D01*
X386055000Y-170010000D02*
X384955000Y-170010000D01*
%TO.C,D57*%
X218417500Y-226560000D02*
X218817500Y-227160000D01*
X218817500Y-226560000D02*
X218817500Y-226060000D01*
X218817500Y-227160000D02*
X219217500Y-226560000D01*
X218817500Y-227560000D02*
X218817500Y-227160000D01*
X219217500Y-226560000D02*
X218417500Y-226560000D01*
X219367500Y-227160000D02*
X218267500Y-227160000D01*
%TO.C,D33*%
X261280000Y-188460000D02*
X261680000Y-189060000D01*
X261680000Y-188460000D02*
X261680000Y-187960000D01*
X261680000Y-189060000D02*
X262080000Y-188460000D01*
X261680000Y-189460000D02*
X261680000Y-189060000D01*
X262080000Y-188460000D02*
X261280000Y-188460000D01*
X262230000Y-189060000D02*
X261130000Y-189060000D01*
%TO.C,D11*%
X366055000Y-150360000D02*
X366455000Y-150960000D01*
X366455000Y-150360000D02*
X366455000Y-149860000D01*
X366455000Y-150960000D02*
X366855000Y-150360000D01*
X366455000Y-151360000D02*
X366455000Y-150960000D01*
X366855000Y-150360000D02*
X366055000Y-150360000D01*
X367005000Y-150960000D02*
X365905000Y-150960000D01*
%TO.C,D12*%
X385105000Y-150360000D02*
X385505000Y-150960000D01*
X385505000Y-150360000D02*
X385505000Y-149860000D01*
X385505000Y-150960000D02*
X385905000Y-150360000D01*
X385505000Y-151360000D02*
X385505000Y-150960000D01*
X385905000Y-150360000D02*
X385105000Y-150360000D01*
X386055000Y-150960000D02*
X384955000Y-150960000D01*
%TO.C,D19*%
X251755000Y-169410000D02*
X252155000Y-170010000D01*
X252155000Y-169410000D02*
X252155000Y-168910000D01*
X252155000Y-170010000D02*
X252555000Y-169410000D01*
X252155000Y-170410000D02*
X252155000Y-170010000D01*
X252555000Y-169410000D02*
X251755000Y-169410000D01*
X252705000Y-170010000D02*
X251605000Y-170010000D01*
%TO.C,D50*%
X323192500Y-207510000D02*
X323592500Y-208110000D01*
X323592500Y-207510000D02*
X323592500Y-207010000D01*
X323592500Y-208110000D02*
X323992500Y-207510000D01*
X323592500Y-208510000D02*
X323592500Y-208110000D01*
X323992500Y-207510000D02*
X323192500Y-207510000D01*
X324142500Y-208110000D02*
X323042500Y-208110000D01*
%TO.C,D51*%
X342242500Y-207510000D02*
X342642500Y-208110000D01*
X342642500Y-207510000D02*
X342642500Y-207010000D01*
X342642500Y-208110000D02*
X343042500Y-207510000D01*
X342642500Y-208510000D02*
X342642500Y-208110000D01*
X343042500Y-207510000D02*
X342242500Y-207510000D01*
X343192500Y-208110000D02*
X342092500Y-208110000D01*
%TO.C,D37*%
X337480000Y-188460000D02*
X337880000Y-189060000D01*
X337880000Y-188460000D02*
X337880000Y-187960000D01*
X337880000Y-189060000D02*
X338280000Y-188460000D01*
X337880000Y-189460000D02*
X337880000Y-189060000D01*
X338280000Y-188460000D02*
X337480000Y-188460000D01*
X338430000Y-189060000D02*
X337330000Y-189060000D01*
%TO.C,D22*%
X308905000Y-169410000D02*
X309305000Y-170010000D01*
X309305000Y-169410000D02*
X309305000Y-168910000D01*
X309305000Y-170010000D02*
X309705000Y-169410000D01*
X309305000Y-170410000D02*
X309305000Y-170010000D01*
X309705000Y-169410000D02*
X308905000Y-169410000D01*
X309855000Y-170010000D02*
X308755000Y-170010000D01*
%TO.C,D18*%
X232705000Y-169410000D02*
X233105000Y-170010000D01*
X233105000Y-169410000D02*
X233105000Y-168910000D01*
X233105000Y-170010000D02*
X233505000Y-169410000D01*
X233105000Y-170410000D02*
X233105000Y-170010000D01*
X233505000Y-169410000D02*
X232705000Y-169410000D01*
X233655000Y-170010000D02*
X232555000Y-170010000D01*
%TO.C,D45*%
X227942500Y-207510000D02*
X228342500Y-208110000D01*
X228342500Y-207510000D02*
X228342500Y-207010000D01*
X228342500Y-208110000D02*
X228742500Y-207510000D01*
X228342500Y-208510000D02*
X228342500Y-208110000D01*
X228742500Y-207510000D02*
X227942500Y-207510000D01*
X228892500Y-208110000D02*
X227792500Y-208110000D01*
%TO.C,D30*%
X204130000Y-188460000D02*
X204530000Y-189060000D01*
X204530000Y-188460000D02*
X204530000Y-187960000D01*
X204530000Y-189060000D02*
X204930000Y-188460000D01*
X204530000Y-189460000D02*
X204530000Y-189060000D01*
X204930000Y-188460000D02*
X204130000Y-188460000D01*
X205080000Y-189060000D02*
X203980000Y-189060000D01*
%TO.C,D21*%
X289855000Y-169410000D02*
X290255000Y-170010000D01*
X290255000Y-169410000D02*
X290255000Y-168910000D01*
X290255000Y-170010000D02*
X290655000Y-169410000D01*
X290255000Y-170410000D02*
X290255000Y-170010000D01*
X290655000Y-169410000D02*
X289855000Y-169410000D01*
X290805000Y-170010000D02*
X289705000Y-170010000D01*
%TO.C,D39*%
X375580000Y-188460000D02*
X375980000Y-189060000D01*
X375980000Y-188460000D02*
X375980000Y-187960000D01*
X375980000Y-189060000D02*
X376380000Y-188460000D01*
X375980000Y-189460000D02*
X375980000Y-189060000D01*
X376380000Y-188460000D02*
X375580000Y-188460000D01*
X376530000Y-189060000D02*
X375430000Y-189060000D01*
%TO.C,D38*%
X356530000Y-188460000D02*
X356930000Y-189060000D01*
X356930000Y-188460000D02*
X356930000Y-187960000D01*
X356930000Y-189060000D02*
X357330000Y-188460000D01*
X356930000Y-189460000D02*
X356930000Y-189060000D01*
X357330000Y-188460000D02*
X356530000Y-188460000D01*
X357480000Y-189060000D02*
X356380000Y-189060000D01*
%TO.C,D72*%
X296998750Y-245610000D02*
X297398750Y-246210000D01*
X297398750Y-245610000D02*
X297398750Y-245110000D01*
X297398750Y-246210000D02*
X297798750Y-245610000D01*
X297398750Y-246610000D02*
X297398750Y-246210000D01*
X297798750Y-245610000D02*
X296998750Y-245610000D01*
X297948750Y-246210000D02*
X296848750Y-246210000D01*
%TO.C,D17*%
X213655000Y-169410000D02*
X214055000Y-170010000D01*
X214055000Y-169410000D02*
X214055000Y-168910000D01*
X214055000Y-170010000D02*
X214455000Y-169410000D01*
X214055000Y-170410000D02*
X214055000Y-170010000D01*
X214455000Y-169410000D02*
X213655000Y-169410000D01*
X214605000Y-170010000D02*
X213505000Y-170010000D01*
%TO.C,D43*%
X182698750Y-207510000D02*
X183098750Y-208110000D01*
X183098750Y-207510000D02*
X183098750Y-207010000D01*
X183098750Y-208110000D02*
X183498750Y-207510000D01*
X183098750Y-208510000D02*
X183098750Y-208110000D01*
X183498750Y-207510000D02*
X182698750Y-207510000D01*
X183648750Y-208110000D02*
X182548750Y-208110000D01*
%TO.C,D61*%
X294617500Y-226560000D02*
X295017500Y-227160000D01*
X295017500Y-226560000D02*
X295017500Y-226060000D01*
X295017500Y-227160000D02*
X295417500Y-226560000D01*
X295017500Y-227560000D02*
X295017500Y-227160000D01*
X295417500Y-226560000D02*
X294617500Y-226560000D01*
X295567500Y-227160000D02*
X294467500Y-227160000D01*
%TO.C,D60*%
X275567500Y-226560000D02*
X275967500Y-227160000D01*
X275967500Y-226560000D02*
X275967500Y-226060000D01*
X275967500Y-227160000D02*
X276367500Y-226560000D01*
X275967500Y-227560000D02*
X275967500Y-227160000D01*
X276367500Y-226560000D02*
X275567500Y-226560000D01*
X276517500Y-227160000D02*
X275417500Y-227160000D01*
%TO.C,D62*%
X313667500Y-226560000D02*
X314067500Y-227160000D01*
X314067500Y-226560000D02*
X314067500Y-226060000D01*
X314067500Y-227160000D02*
X314467500Y-226560000D01*
X314067500Y-227560000D02*
X314067500Y-227160000D01*
X314467500Y-226560000D02*
X313667500Y-226560000D01*
X314617500Y-227160000D02*
X313517500Y-227160000D01*
%TO.C,D34*%
X280330000Y-188460000D02*
X280730000Y-189060000D01*
X280730000Y-188460000D02*
X280730000Y-187960000D01*
X280730000Y-189060000D02*
X281130000Y-188460000D01*
X280730000Y-189460000D02*
X280730000Y-189060000D01*
X281130000Y-188460000D02*
X280330000Y-188460000D01*
X281280000Y-189060000D02*
X280180000Y-189060000D01*
%TO.C,D47*%
X266042500Y-207510000D02*
X266442500Y-208110000D01*
X266442500Y-207510000D02*
X266442500Y-207010000D01*
X266442500Y-208110000D02*
X266842500Y-207510000D01*
X266442500Y-208510000D02*
X266442500Y-208110000D01*
X266842500Y-207510000D02*
X266042500Y-207510000D01*
X266992500Y-208110000D02*
X265892500Y-208110000D01*
%TO.C,D3*%
X213655000Y-150360000D02*
X214055000Y-150960000D01*
X214055000Y-150360000D02*
X214055000Y-149860000D01*
X214055000Y-150960000D02*
X214455000Y-150360000D01*
X214055000Y-151360000D02*
X214055000Y-150960000D01*
X214455000Y-150360000D02*
X213655000Y-150360000D01*
X214605000Y-150960000D02*
X213505000Y-150960000D01*
%TO.C,D66*%
X389867500Y-226560000D02*
X390267500Y-227160000D01*
X390267500Y-226560000D02*
X390267500Y-226060000D01*
X390267500Y-227160000D02*
X390667500Y-226560000D01*
X390267500Y-227560000D02*
X390267500Y-227160000D01*
X390667500Y-226560000D02*
X389867500Y-226560000D01*
X390817500Y-227160000D02*
X389717500Y-227160000D01*
%TO.C,D63*%
X332717500Y-226560000D02*
X333117500Y-227160000D01*
X333117500Y-226560000D02*
X333117500Y-226060000D01*
X333117500Y-227160000D02*
X333517500Y-226560000D01*
X333117500Y-227560000D02*
X333117500Y-227160000D01*
X333517500Y-226560000D02*
X332717500Y-226560000D01*
X333667500Y-227160000D02*
X332567500Y-227160000D01*
%TO.C,D35*%
X299380000Y-188460000D02*
X299780000Y-189060000D01*
X299780000Y-188460000D02*
X299780000Y-187960000D01*
X299780000Y-189060000D02*
X300180000Y-188460000D01*
X299780000Y-189460000D02*
X299780000Y-189060000D01*
X300180000Y-188460000D02*
X299380000Y-188460000D01*
X300330000Y-189060000D02*
X299230000Y-189060000D01*
%TO.C,D20*%
X270805000Y-169410000D02*
X271205000Y-170010000D01*
X271205000Y-169410000D02*
X271205000Y-168910000D01*
X271205000Y-170010000D02*
X271605000Y-169410000D01*
X271205000Y-170410000D02*
X271205000Y-170010000D01*
X271605000Y-169410000D02*
X270805000Y-169410000D01*
X271755000Y-170010000D02*
X270655000Y-170010000D01*
%TO.C,D16*%
X194605000Y-169410000D02*
X195005000Y-170010000D01*
X195005000Y-169410000D02*
X195005000Y-168910000D01*
X195005000Y-170010000D02*
X195405000Y-169410000D01*
X195005000Y-170410000D02*
X195005000Y-170010000D01*
X195405000Y-169410000D02*
X194605000Y-169410000D01*
X195555000Y-170010000D02*
X194455000Y-170010000D01*
%TO.C,D44*%
X208892500Y-207510000D02*
X209292500Y-208110000D01*
X209292500Y-207510000D02*
X209292500Y-207010000D01*
X209292500Y-208110000D02*
X209692500Y-207510000D01*
X209292500Y-208510000D02*
X209292500Y-208110000D01*
X209692500Y-207510000D02*
X208892500Y-207510000D01*
X209842500Y-208110000D02*
X208742500Y-208110000D01*
%TO.C,D13*%
X404155000Y-150360000D02*
X404555000Y-150960000D01*
X404555000Y-150360000D02*
X404555000Y-149860000D01*
X404555000Y-150960000D02*
X404955000Y-150360000D01*
X404555000Y-151360000D02*
X404555000Y-150960000D01*
X404955000Y-150360000D02*
X404155000Y-150360000D01*
X405105000Y-150960000D02*
X404005000Y-150960000D01*
%TO.C,D10*%
X347005000Y-150360000D02*
X347405000Y-150960000D01*
X347405000Y-150360000D02*
X347405000Y-149860000D01*
X347405000Y-150960000D02*
X347805000Y-150360000D01*
X347405000Y-151360000D02*
X347405000Y-150960000D01*
X347805000Y-150360000D02*
X347005000Y-150360000D01*
X347955000Y-150960000D02*
X346855000Y-150960000D01*
%TO.C,D9*%
X327955000Y-150360000D02*
X328355000Y-150960000D01*
X328355000Y-150360000D02*
X328355000Y-149860000D01*
X328355000Y-150960000D02*
X328755000Y-150360000D01*
X328355000Y-151360000D02*
X328355000Y-150960000D01*
X328755000Y-150360000D02*
X327955000Y-150360000D01*
X328905000Y-150960000D02*
X327805000Y-150960000D01*
%TO.C,D59*%
X256517500Y-226560000D02*
X256917500Y-227160000D01*
X256917500Y-226560000D02*
X256917500Y-226060000D01*
X256917500Y-227160000D02*
X257317500Y-226560000D01*
X256917500Y-227560000D02*
X256917500Y-227160000D01*
X257317500Y-226560000D02*
X256517500Y-226560000D01*
X257467500Y-227160000D02*
X256367500Y-227160000D01*
%TO.C,D73*%
X366055000Y-245610000D02*
X366455000Y-246210000D01*
X366455000Y-245610000D02*
X366455000Y-245110000D01*
X366455000Y-246210000D02*
X366855000Y-245610000D01*
X366455000Y-246610000D02*
X366455000Y-246210000D01*
X366855000Y-245610000D02*
X366055000Y-245610000D01*
X367005000Y-246210000D02*
X365905000Y-246210000D01*
%TO.C,D46*%
X246992500Y-207510000D02*
X247392500Y-208110000D01*
X247392500Y-207510000D02*
X247392500Y-207010000D01*
X247392500Y-208110000D02*
X247792500Y-207510000D01*
X247392500Y-208510000D02*
X247392500Y-208110000D01*
X247792500Y-207510000D02*
X246992500Y-207510000D01*
X247942500Y-208110000D02*
X246842500Y-208110000D01*
%TD*%
M02*
